<svg id="svg" xmlns="http://www.w3.org/2000/svg" xmlns:xlink="http://www.w3.org/1999/xlink" width="400" height="207.7777777777778" viewBox="0, 0, 400,207.7777777777778"><g id="svgg"><path id="path0" d="M16.294 13.697 C 15.941 14.051,16.238 20.534,16.623 20.883 C 17.255 21.455,17.049 34.388,16.354 37.774 C 16.108 38.971,15.792 39.327,15.792 38.407 C 15.792 38.197,15.652 38.026,15.481 38.026 C 14.963 38.026,15.014 62.698,15.532 63.078 C 15.906 63.352,15.994 72.033,15.663 75.896 C 15.530 77.443,15.773 77.710,16.539 76.860 C 17.371 75.938,21.068 76.640,20.945 77.696 C 20.866 78.374,21.525 78.552,21.937 77.964 C 22.218 77.562,23.220 77.288,24.364 77.300 L 24.935 77.305 24.935 74.507 C 24.935 72.058,24.890 71.684,24.571 71.505 C 23.586 70.954,24.465 68.247,25.577 68.411 L 26.182 68.499 26.182 66.865 C 26.182 65.520,26.103 65.123,25.737 64.628 C 24.941 63.552,25.518 61.870,26.683 61.870 C 27.378 61.870,27.438 60.892,26.782 60.237 C 25.927 59.381,26.606 57.558,27.780 57.558 C 28.345 57.558,28.391 57.388,27.920 57.044 C 27.348 56.626,27.588 53.922,28.233 53.523 C 28.347 53.453,28.549 52.869,28.683 52.225 C 28.816 51.581,29.196 50.681,29.528 50.224 C 29.859 49.766,30.130 49.185,30.130 48.932 C 30.130 48.679,30.297 48.249,30.502 47.976 C 30.706 47.704,30.985 47.223,31.121 46.909 C 31.387 46.294,32.483 46.077,32.694 46.597 C 32.756 46.753,32.805 46.711,32.815 46.494 C 32.824 46.294,32.693 46.130,32.523 46.130 C 32.109 46.130,31.886 45.167,32.210 44.777 C 32.351 44.607,32.782 44.468,33.168 44.468 C 33.967 44.468,34.013 44.334,33.515 43.467 C 33.074 42.699,33.394 42.182,34.311 42.182 C 34.640 42.182,34.909 42.088,34.909 41.974 C 34.909 41.860,35.077 41.766,35.283 41.766 C 36.133 41.766,36.447 40.801,35.740 40.360 C 35.181 40.011,35.217 39.433,35.844 38.687 C 36.130 38.348,36.364 37.986,36.364 37.884 C 36.364 37.575,38.305 35.794,38.805 35.644 C 39.062 35.567,39.273 35.371,39.273 35.207 C 39.273 34.981,39.576 34.909,40.519 34.909 C 41.711 34.909,41.766 34.886,41.766 34.390 C 41.766 33.982,41.872 33.870,42.259 33.870 C 42.763 33.870,43.005 33.202,43.011 31.788 C 43.013 31.268,43.430 30.832,45.379 29.307 C 45.824 28.960,46.260 28.675,46.350 28.675 C 46.440 28.675,46.778 28.454,47.101 28.184 C 47.424 27.914,47.922 27.623,48.208 27.536 C 48.494 27.450,48.887 27.240,49.081 27.069 C 49.367 26.818,49.564 26.803,50.099 26.989 C 51.026 27.312,51.117 27.288,51.117 26.718 C 51.117 25.577,51.655 25.240,52.480 25.864 C 53.121 26.349,54.086 26.284,53.922 25.766 C 53.551 24.597,54.726 23.775,55.719 24.510 C 56.666 25.209,57.351 25.087,57.351 24.220 C 57.351 23.458,57.925 22.857,58.653 22.857 C 58.991 22.857,60.592 22.400,63.377 21.508 C 63.891 21.343,65.153 21.151,66.182 21.080 C 67.210 21.010,69.253 20.765,70.722 20.536 C 73.576 20.092,74.252 20.134,74.595 20.774 C 74.888 21.323,75.002 22.424,74.778 22.562 C 74.679 22.624,74.580 23.253,74.558 23.960 L 74.519 25.247 74.444 24.052 C 74.403 23.395,74.280 22.857,74.171 22.857 C 74.047 22.857,73.974 49.558,73.974 94.969 L 73.974 167.082 74.418 167.683 C 75.216 168.761,74.563 170.805,73.422 170.805 C 72.848 170.805,72.747 171.478,73.247 171.978 C 73.756 172.487,73.651 173.975,73.070 174.480 C 72.778 174.734,72.527 175.247,72.445 175.757 C 72.358 176.300,72.158 176.691,71.895 176.832 C 71.667 176.954,71.481 177.183,71.481 177.340 C 71.481 177.845,69.142 180.364,68.674 180.364 C 68.530 180.364,68.258 180.597,68.071 180.883 C 67.884 181.169,67.551 181.403,67.332 181.403 C 67.112 181.403,66.788 181.609,66.612 181.861 C 66.320 182.277,66.227 182.296,65.598 182.069 C 64.484 181.666,64.208 181.738,64.208 182.430 C 64.208 183.554,62.744 184.094,61.922 183.273 C 61.201 182.552,60.093 182.702,60.013 183.532 C 59.889 184.823,56.554 185.350,48.500 185.351 C 45.296 185.351,45.441 185.121,45.587 189.957 C 45.650 192.052,45.704 194.071,45.708 194.443 L 45.714 195.119 89.752 195.116 L 133.791 195.113 133.810 190.362 C 133.829 185.791,133.814 185.606,133.418 185.502 C 133.192 185.443,130.875 185.383,128.269 185.368 C 120.038 185.321,117.610 184.918,117.610 183.595 C 117.610 182.704,116.550 182.505,115.892 183.273 C 115.156 184.133,113.455 183.475,113.455 182.330 C 113.455 181.743,112.976 181.644,112.490 182.130 C 111.751 182.868,110.753 182.367,110.753 181.257 C 110.753 180.571,110.753 180.571,110.338 180.987 C 109.765 181.560,109.402 181.508,108.883 180.779 C 108.639 180.436,108.309 180.156,108.149 180.156 C 107.989 180.156,107.747 179.947,107.611 179.692 C 107.474 179.437,107.144 179.056,106.876 178.846 C 106.609 178.636,106.390 178.340,106.390 178.189 C 106.390 178.038,106.264 177.866,106.110 177.807 C 105.956 177.748,105.623 177.294,105.371 176.798 C 105.120 176.302,104.779 175.662,104.616 175.377 C 104.452 175.091,104.316 174.659,104.315 174.418 C 104.313 174.176,104.130 173.748,103.909 173.466 C 103.412 172.834,103.317 172.443,103.076 170.040 C 102.954 168.818,102.750 167.925,102.508 167.556 C 101.879 166.596,101.806 159.224,102.420 158.668 L 102.857 158.273 102.857 90.650 C 102.857 23.341,102.855 23.024,102.442 22.498 C 101.081 20.768,102.839 19.960,106.662 20.557 C 108.055 20.775,110.086 21.012,111.176 21.083 C 113.406 21.230,117.713 22.513,118.061 23.135 C 118.187 23.361,118.179 23.481,118.036 23.481 C 117.916 23.481,117.818 23.574,117.818 23.688 C 117.818 24.074,118.392 23.900,118.502 23.481 C 118.757 22.505,120.519 23.322,120.519 24.416 C 120.519 25.028,121.375 25.139,122.066 24.617 C 122.931 23.962,123.818 24.600,123.546 25.682 C 123.393 26.293,123.697 26.329,124.260 25.766 C 125.067 24.959,125.922 25.363,125.922 26.550 L 125.922 27.251 126.470 26.820 C 127.200 26.246,127.469 26.275,128.241 27.013 C 128.599 27.356,129.084 27.636,129.318 27.636 C 130.024 27.636,132.458 29.393,132.240 29.746 C 132.179 29.844,132.299 29.988,132.506 30.065 C 132.714 30.143,133.296 30.609,133.800 31.103 C 134.305 31.596,134.826 32.000,134.959 32.000 C 135.092 32.000,135.420 32.234,135.688 32.519 C 135.957 32.805,136.282 33.039,136.410 33.039 C 136.727 33.039,140.260 36.742,140.260 37.074 C 140.260 37.220,140.447 37.507,140.675 37.714 C 141.121 38.117,141.208 38.767,140.886 39.273 C 140.725 39.524,140.831 39.604,141.439 39.688 C 141.853 39.745,142.261 39.932,142.346 40.104 C 142.431 40.275,142.604 40.649,142.730 40.935 C 143.081 41.734,143.423 42.200,144.119 42.830 C 144.471 43.148,145.075 44.044,145.462 44.821 C 145.849 45.598,146.322 46.443,146.514 46.699 C 146.705 46.956,146.927 47.517,147.006 47.946 C 147.086 48.376,147.334 48.924,147.558 49.165 C 148.189 49.844,148.295 50.978,147.775 51.497 L 147.348 51.924 148.093 51.988 C 149.063 52.071,149.359 52.722,148.768 53.474 C 148.027 54.416,148.215 55.443,149.143 55.520 C 150.280 55.614,150.900 58.182,149.785 58.182 C 149.689 58.182,149.610 58.556,149.610 59.013 C 149.610 59.793,149.647 59.844,150.219 59.844 C 151.014 59.844,151.410 60.266,151.585 61.302 C 151.734 62.183,151.479 62.753,150.936 62.753 C 150.756 62.753,150.649 62.986,150.649 63.378 C 150.649 63.956,150.682 63.984,151.078 63.742 C 151.942 63.214,153.029 66.131,153.367 69.884 C 153.483 71.162,153.724 72.769,153.904 73.455 C 154.084 74.140,154.290 75.306,154.362 76.045 L 154.494 77.388 155.273 77.572 C 155.715 77.676,156.052 77.881,156.052 78.047 C 156.052 78.207,156.192 78.338,156.364 78.338 C 156.571 78.338,156.675 78.131,156.675 77.722 C 156.675 76.578,160.530 75.868,161.375 76.855 C 161.584 77.099,161.851 77.299,161.968 77.299 C 162.225 77.299,162.003 66.936,161.648 62.338 C 161.158 55.977,161.069 53.051,160.918 38.412 L 160.764 23.318 161.213 23.038 C 161.648 22.766,161.662 22.637,161.642 19.015 C 161.630 16.957,161.556 15.506,161.476 15.792 C 161.190 16.822,160.519 16.458,160.519 15.273 C 160.519 14.552,160.599 14.250,160.779 14.286 C 160.922 14.314,161.039 14.250,161.039 14.143 C 161.039 13.743,16.692 13.299,16.294 13.697 M161.247 14.222 C 161.247 14.386,161.340 14.579,161.455 14.649 C 161.569 14.720,161.662 14.585,161.662 14.350 C 161.662 14.115,161.569 13.922,161.455 13.922 C 161.340 13.922,161.247 14.057,161.247 14.222 M74.545 44.816 C 74.513 48.110,74.487 45.475,74.487 38.961 C 74.487 32.447,74.513 29.752,74.545 32.972 C 74.577 36.193,74.578 41.523,74.545 44.816 M74.545 64.065 C 74.511 65.915,74.483 64.343,74.483 60.571 C 74.483 56.800,74.511 55.286,74.545 57.208 C 74.579 59.130,74.579 62.215,74.545 64.065 M74.545 79.650 C 74.511 81.499,74.483 79.927,74.483 76.156 C 74.483 72.384,74.511 70.871,74.545 72.792 C 74.579 74.714,74.579 77.800,74.545 79.650 M74.545 112.483 C 74.514 117.075,74.489 113.257,74.489 104.000 C 74.489 94.743,74.514 90.986,74.545 95.652 C 74.577 100.318,74.577 107.892,74.545 112.483 M50.701 96.767 C 50.701 97.654,50.392 97.670,32.877 97.659 C 19.461 97.650,16.104 97.701,15.968 97.915 C 15.875 98.062,15.797 106.200,15.795 116.000 L 15.792 133.818 33.766 133.818 L 51.740 133.818 51.740 115.325 C 51.740 96.450,51.749 96.681,51.030 96.818 C 50.925 96.838,50.947 96.725,51.078 96.566 C 51.265 96.341,51.249 96.277,51.010 96.277 C 50.824 96.277,50.701 96.472,50.701 96.767 M348.468 115.473 L 348.468 133.818 366.390 133.818 L 384.312 133.818 384.259 116.208 C 384.230 106.522,384.158 98.387,384.099 98.130 L 383.992 97.662 367.107 97.662 C 352.697 97.662,350.159 97.618,349.792 97.361 C 349.556 97.196,349.161 97.075,348.915 97.094 L 348.468 97.127 348.468 115.473 M144.846 97.612 C 129.658 97.660,128.099 97.696,127.755 98.007 C 127.395 98.334,127.377 99.164,127.377 115.253 C 127.377 132.017,127.373 132.156,126.961 132.156 C 126.549 132.156,126.545 132.017,126.545 115.233 C 126.545 104.057,126.474 98.266,126.335 98.180 C 126.195 98.093,126.128 103.938,126.132 115.934 L 126.139 133.818 144.160 133.818 L 162.182 133.818 162.120 115.896 C 162.073 102.244,161.999 97.925,161.809 97.766 C 161.645 97.631,155.761 97.577,144.846 97.612 M238.909 97.989 L 238.338 98.299 238.338 116.059 L 238.338 133.818 256.623 133.818 L 274.909 133.818 274.909 116.052 C 274.909 97.539,274.939 98.260,274.180 98.290 C 274.121 98.292,273.799 98.152,273.463 97.978 C 272.550 97.506,239.780 97.517,238.909 97.989 M74.545 150.078 C 74.514 154.678,74.489 150.914,74.489 141.714 C 74.489 132.514,74.514 128.751,74.545 133.351 C 74.577 137.951,74.577 145.478,74.545 150.078 M51.844 184.112 C 53.733 184.346,56.104 184.342,56.104 184.104 C 56.104 183.974,55.068 183.908,53.351 183.927 C 51.070 183.952,50.812 183.984,51.844 184.112 M122.545 184.048 C 123.031 184.092,123.826 184.092,124.312 184.048 C 124.797 184.005,124.400 183.969,123.429 183.969 C 122.457 183.969,122.060 184.005,122.545 184.048 " stroke="none" fill="#e4047c" fill-rule="evenodd"></path><path id="path1" d="M16.208 12.229 L 16.208 12.821 18.292 12.957 C 19.439 13.032,51.862 13.098,90.344 13.103 C 128.826 13.109,160.592 13.131,160.935 13.154 C 161.514 13.192,161.563 13.139,161.623 12.416 L 161.687 11.636 88.948 11.636 L 16.208 11.636 16.208 12.229 M15.175 24.468 C 15.180 27.156,15.246 28.254,15.388 28.009 C 15.502 27.813,15.719 27.701,15.871 27.759 C 16.211 27.890,16.416 26.202,16.416 23.259 C 16.416 20.877,16.330 20.571,15.666 20.571 L 15.169 20.571 15.175 24.468 M72.208 21.316 C 71.979 21.351,71.170 21.439,70.410 21.510 C 69.014 21.640,68.328 22.234,69.047 22.691 C 69.789 23.162,73.963 22.871,74.096 22.338 C 74.360 21.289,73.918 21.051,72.208 21.316 M103.522 21.462 C 103.173 21.624,103.061 21.827,103.107 22.218 L 103.169 22.753 105.529 22.812 C 108.004 22.874,108.505 22.734,108.321 22.031 C 108.216 21.627,108.045 21.591,105.039 21.330 C 104.468 21.281,103.785 21.340,103.522 21.462 M113.183 22.587 C 112.916 22.656,112.825 22.845,112.871 23.238 C 112.955 23.966,114.740 24.101,114.877 23.390 C 115.010 22.699,114.212 22.321,113.183 22.587 M62.629 22.939 C 62.422 23.478,62.701 23.896,63.266 23.896 C 63.689 23.896,63.792 23.794,63.792 23.377 C 63.792 23.091,63.706 22.857,63.601 22.857 C 63.496 22.857,63.263 22.801,63.084 22.732 C 62.888 22.657,62.705 22.740,62.629 22.939 M161.487 23.325 C 161.396 23.582,161.390 26.971,161.474 30.857 C 161.557 34.743,161.634 38.834,161.644 39.948 C 161.662 41.940,162.051 42.905,162.104 41.091 L 162.130 40.208 162.291 41.312 C 162.379 41.920,162.508 42.473,162.576 42.542 C 162.645 42.610,162.701 38.210,162.701 32.762 L 162.701 22.857 162.177 22.857 C 161.820 22.857,161.599 23.007,161.487 23.325 M58.528 24.035 C 58.261 24.302,58.393 24.505,58.753 24.381 C 59.049 24.279,59.039 24.318,58.701 24.589 C 58.295 24.914,58.298 24.922,58.857 24.928 C 59.330 24.934,59.429 24.845,59.429 24.416 C 59.429 23.912,58.882 23.681,58.528 24.035 M54.971 25.506 C 55.009 26.413,56.104 26.477,56.104 25.572 C 56.104 25.014,56.032 24.935,55.526 24.935 C 55.027 24.935,54.951 25.014,54.971 25.506 M124.312 26.109 C 123.745 26.343,124.009 27.253,124.623 27.183 C 125.076 27.131,125.195 27.009,125.195 26.600 C 125.195 26.089,124.840 25.891,124.312 26.109 M126.130 27.740 C 126.130 28.191,126.222 28.260,126.828 28.260 C 127.461 28.260,127.517 28.211,127.427 27.740 C 127.349 27.329,127.203 27.221,126.729 27.221 C 126.228 27.221,126.130 27.306,126.130 27.740 M48.152 28.659 C 48.087 28.908,47.829 29.084,47.466 29.127 C 46.911 29.192,46.379 30.102,46.705 30.428 C 47.110 30.833,48.416 30.526,48.416 30.026 C 48.416 29.610,48.519 29.506,48.935 29.506 C 49.374 29.506,49.455 29.410,49.455 28.883 C 49.455 28.119,48.343 27.928,48.152 28.659 M129.455 29.922 C 129.455 30.496,129.512 30.545,130.182 30.545 C 130.851 30.545,130.909 30.496,130.909 29.922 C 130.909 29.348,130.851 29.299,130.182 29.299 C 129.512 29.299,129.455 29.348,129.455 29.922 M43.794 32.041 C 43.692 32.737,44.092 33.038,44.652 32.687 C 45.074 32.423,45.218 31.590,44.846 31.569 C 44.695 31.560,44.417 31.523,44.228 31.486 C 43.985 31.439,43.858 31.600,43.794 32.041 M135.429 33.806 C 134.818 33.965,134.952 34.909,135.584 34.909 C 135.946 34.909,136.104 35.023,136.104 35.283 C 136.104 35.762,136.498 36.156,136.977 36.156 C 137.237 36.156,137.351 36.314,137.351 36.675 C 137.351 37.091,137.455 37.195,137.870 37.195 C 138.286 37.195,138.390 37.299,138.390 37.714 C 138.390 38.130,138.494 38.234,138.909 38.234 C 139.325 38.234,139.429 38.130,139.429 37.714 C 139.429 37.333,139.318 37.195,139.013 37.195 C 138.687 37.195,138.597 37.056,138.597 36.552 C 138.597 36.076,138.485 35.880,138.166 35.796 C 137.929 35.734,137.650 35.462,137.548 35.192 C 137.444 34.919,137.190 34.701,136.974 34.701 C 136.761 34.701,136.480 34.468,136.349 34.182 C 136.109 33.654,136.070 33.638,135.429 33.806 M38.174 36.908 C 38.093 36.990,38.026 37.230,38.026 37.442 C 38.026 37.654,37.792 37.934,37.506 38.064 C 36.707 38.428,36.878 39.481,37.737 39.481 C 38.150 39.481,38.234 39.376,38.234 38.857 C 38.234 38.300,38.302 38.234,38.870 38.234 C 39.463 38.234,39.502 38.188,39.442 37.558 C 39.378 36.892,38.593 36.490,38.174 36.908 M140.675 41.065 C 140.675 41.966,141.617 42.123,141.834 41.259 C 142.001 40.594,141.838 40.364,141.199 40.364 C 140.743 40.364,140.675 40.454,140.675 41.065 M144.000 46.470 C 144.000 47.072,144.070 47.169,144.505 47.169 C 145.457 47.169,145.471 46.053,144.523 45.872 C 144.048 45.781,144.000 45.836,144.000 46.470 M145.125 48.074 C 144.868 48.745,145.123 49.351,145.662 49.351 C 146.404 49.351,146.451 47.934,145.713 47.830 C 145.440 47.791,145.195 47.893,145.125 48.074 M30.409 50.400 C 30.163 51.042,30.438 51.636,31.013 51.702 C 31.551 51.764,31.584 51.720,31.584 50.949 C 31.584 50.105,30.683 49.685,30.409 50.400 M146.190 50.242 C 145.987 50.446,146.073 51.237,146.327 51.491 C 146.956 52.119,147.811 51.312,147.467 50.416 C 147.362 50.140,146.421 50.012,146.190 50.242 M29.384 52.602 C 29.103 53.056,29.508 53.818,30.030 53.818 C 30.522 53.818,30.868 52.604,30.390 52.556 C 30.304 52.547,30.071 52.508,29.871 52.470 C 29.671 52.432,29.452 52.491,29.384 52.602 M28.217 55.754 C 28.068 56.734,28.275 57.143,28.919 57.143 C 29.822 57.143,29.749 55.409,28.844 55.341 C 28.412 55.309,28.269 55.403,28.217 55.754 M148.502 56.866 C 148.049 57.319,148.548 58.390,149.213 58.390 C 149.558 58.390,149.834 57.503,149.656 56.968 C 149.570 56.710,148.732 56.636,148.502 56.866 M27.740 58.953 C 26.805 59.178,26.824 60.468,27.763 60.468 C 28.204 60.468,28.260 60.374,28.260 59.636 C 28.260 59.179,28.236 58.816,28.208 58.829 C 28.179 58.843,27.969 58.898,27.740 58.953 M162.613 61.022 C 162.348 61.712,162.744 74.061,163.015 73.555 C 163.287 73.046,163.498 73.312,163.564 74.251 C 163.682 75.923,163.904 71.042,163.924 66.338 L 163.948 60.675 163.347 60.675 C 162.978 60.675,162.695 60.809,162.613 61.022 M149.610 61.948 C 149.610 62.950,150.535 63.177,150.772 62.234 C 150.959 61.489,150.760 61.143,150.146 61.143 C 149.662 61.143,149.610 61.221,149.610 61.948 M14.061 62.892 C 13.882 63.071,13.881 67.701,14.059 69.410 C 14.169 70.457,14.233 70.627,14.373 70.247 C 14.510 69.879,14.613 69.823,14.828 70.002 C 15.139 70.260,15.519 64.328,15.258 63.288 C 15.128 62.771,14.416 62.536,14.061 62.892 M26.157 63.678 C 25.958 63.877,26.222 65.039,26.465 65.036 C 27.297 65.025,27.504 63.744,26.693 63.628 C 26.459 63.594,26.218 63.617,26.157 63.678 M24.935 71.006 C 24.935 71.626,24.992 71.688,25.558 71.688 C 26.191 71.688,26.423 71.111,26.023 70.533 C 25.649 69.992,24.935 70.302,24.935 71.006 M151.803 73.502 C 151.740 73.666,151.688 74.313,151.688 74.939 L 151.688 76.078 152.341 76.013 C 153.139 75.934,153.348 75.449,153.099 74.257 C 152.909 73.343,152.054 72.846,151.803 73.502 M16.288 77.391 C 16.030 78.062,16.367 78.365,17.297 78.298 C 18.085 78.241,18.182 78.177,18.182 77.714 C 18.182 77.073,16.518 76.789,16.288 77.391 M159.248 77.392 C 158.982 78.086,159.322 78.338,160.527 78.338 C 161.673 78.338,161.689 78.329,161.624 77.766 C 161.544 77.073,159.494 76.750,159.248 77.392 M23.377 78.067 C 22.023 78.225,21.818 78.329,21.818 78.861 C 21.818 79.364,21.855 79.377,23.390 79.377 L 24.961 79.377 24.896 78.721 C 24.827 78.023,24.599 77.924,23.377 78.067 M154.234 78.267 C 153.425 78.594,153.975 79.377,155.013 79.377 C 155.970 79.377,156.052 79.338,156.052 78.879 C 156.052 78.223,155.121 77.910,154.234 78.267 M13.937 96.883 C 13.956 97.761,14.217 98.442,14.412 98.125 C 14.493 97.995,14.696 97.941,14.864 98.005 C 15.105 98.098,15.169 97.921,15.169 97.165 C 15.169 96.240,15.148 96.208,14.545 96.208 C 13.978 96.208,13.923 96.268,13.937 96.883 M163.117 96.356 C 163.288 96.419,163.545 96.564,163.688 96.677 C 163.874 96.823,163.948 96.786,163.948 96.545 C 163.948 96.312,163.772 96.213,163.377 96.224 C 163.051 96.234,162.939 96.290,163.117 96.356 M384.912 96.505 C 384.703 97.049,384.999 97.839,385.391 97.782 C 385.927 97.703,386.226 97.113,385.951 96.675 C 385.646 96.191,385.069 96.096,384.912 96.505 M236.260 115.519 L 236.260 133.818 236.969 133.818 L 237.679 133.818 237.699 116.208 C 237.720 97.607,237.710 97.390,236.817 97.285 L 236.260 97.219 236.260 115.519 M14.229 115.117 C 14.229 123.745,14.254 127.275,14.286 122.961 C 14.317 118.647,14.317 111.587,14.286 107.273 C 14.254 102.958,14.229 106.488,14.229 115.117 M102.726 158.646 C 102.385 159.533,102.584 163.853,102.983 164.252 C 103.700 164.969,103.896 164.320,103.896 161.221 L 103.896 158.338 103.370 158.338 C 103.081 158.338,102.791 158.476,102.726 158.646 M72.935 168.179 C 72.935 169.027,72.968 169.079,73.441 168.989 C 74.353 168.814,74.344 167.273,73.430 167.273 C 72.984 167.273,72.935 167.363,72.935 168.179 M103.708 167.740 C 103.610 167.997,103.607 168.675,103.701 169.247 C 103.795 169.818,103.877 170.400,103.884 170.539 C 103.891 170.684,104.038 170.738,104.229 170.664 C 104.412 170.594,104.644 170.667,104.745 170.827 C 104.859 171.007,104.930 170.389,104.932 169.195 C 104.935 167.277,104.934 167.273,104.410 167.273 C 104.058 167.273,103.828 167.426,103.708 167.740 M71.728 172.620 C 71.798 173.462,72.753 173.864,73.022 173.165 C 73.283 172.484,72.922 171.844,72.277 171.844 C 71.695 171.844,71.667 171.885,71.728 172.620 M70.649 174.739 C 70.649 175.543,70.680 175.584,71.285 175.584 C 72.209 175.584,72.149 174.067,71.221 173.960 C 70.680 173.898,70.649 173.940,70.649 174.739 M68.621 177.488 C 68.479 177.630,68.364 177.914,68.364 178.119 C 68.364 178.380,68.206 178.494,67.844 178.494 C 67.429 178.494,67.325 178.597,67.325 179.013 C 67.325 179.454,67.229 179.532,66.687 179.532 C 66.115 179.532,66.057 179.590,66.116 180.104 C 66.201 180.840,67.532 181.115,67.532 180.397 C 67.532 180.130,67.748 179.913,68.156 179.771 C 68.566 179.628,68.779 179.413,68.779 179.142 C 68.779 178.873,68.941 178.707,69.247 178.664 C 69.613 178.612,69.714 178.462,69.714 177.974 C 69.714 177.286,69.097 177.012,68.621 177.488 M108.346 178.649 C 108.494 178.797,108.570 178.820,109.103 178.883 C 109.224 178.897,109.269 178.996,109.204 179.103 C 109.138 179.209,109.179 179.355,109.295 179.426 C 109.417 179.502,109.506 179.333,109.506 179.025 C 109.506 178.567,109.416 178.494,108.848 178.494 C 108.487 178.494,108.261 178.564,108.346 178.649 M111.584 181.224 C 111.584 181.739,111.663 181.818,112.179 181.818 C 112.962 181.818,112.880 180.877,112.084 180.724 C 111.651 180.642,111.584 180.708,111.584 181.224 M61.714 182.338 C 61.714 182.708,61.833 182.866,62.130 182.888 C 62.358 182.905,62.654 182.929,62.787 182.940 C 62.920 182.952,63.040 182.704,63.054 182.390 C 63.076 181.877,63.008 181.818,62.396 181.818 C 61.807 181.818,61.714 181.889,61.714 182.338 M114.651 182.341 C 114.837 183.314,116.156 183.307,116.156 182.334 C 116.156 181.874,116.069 181.818,115.353 181.818 C 114.608 181.818,114.558 181.855,114.651 182.341 M56.142 183.429 C 56.225 184.149,57.635 184.422,57.809 183.751 C 57.983 183.081,57.756 182.857,56.904 182.857 C 56.124 182.857,56.080 182.890,56.142 183.429 M119.455 183.065 C 119.353 183.879,119.413 183.983,120.090 184.159 C 121.051 184.407,121.766 184.076,121.766 183.381 C 121.766 182.835,119.522 182.528,119.455 183.065 " stroke="none" fill="#ec84b5" fill-rule="evenodd"></path><path id="path2" d="M16.208 13.500 C 16.208 13.633,41.311 13.706,87.987 13.712 C 156.879 13.719,161.039 13.744,161.039 14.156 C 161.039 14.256,160.922 14.314,160.779 14.286 C 160.599 14.250,160.519 14.552,160.519 15.273 C 160.519 16.160,160.578 16.312,160.920 16.312 C 161.456 16.312,161.760 15.248,161.413 14.584 C 161.213 14.200,161.217 14.069,161.435 13.934 C 161.619 13.821,161.444 13.711,160.906 13.602 C 159.690 13.355,16.208 13.254,16.208 13.500 M71.169 20.477 C 70.369 20.628,68.499 20.855,67.013 20.982 C 65.527 21.109,63.891 21.347,63.377 21.510 C 60.454 22.439,58.990 22.857,58.653 22.857 C 57.925 22.857,57.351 23.458,57.351 24.220 C 57.351 24.613,57.444 24.935,57.558 24.935 C 57.673 24.935,57.766 24.659,57.766 24.322 C 57.766 23.499,58.294 23.213,59.072 23.615 C 59.753 23.967,60.975 23.915,61.013 23.532 C 61.027 23.390,61.051 23.182,61.065 23.070 C 61.149 22.416,63.414 21.966,63.735 22.540 C 63.909 22.850,65.208 22.692,65.091 22.375 C 64.828 21.662,64.790 21.671,70.857 20.979 C 74.186 20.600,75.035 20.906,74.474 22.286 C 74.369 22.543,74.339 23.314,74.406 24.000 L 74.528 25.247 74.562 23.960 C 74.582 23.253,74.676 22.626,74.771 22.567 C 74.867 22.507,74.921 22.245,74.892 21.983 C 74.863 21.721,74.832 21.390,74.823 21.247 C 74.755 20.229,73.681 20.003,71.169 20.477 M103.329 20.302 C 102.269 20.507,101.784 21.695,102.443 22.470 L 102.859 22.961 102.650 22.376 C 102.162 21.009,103.172 20.609,106.220 20.963 C 107.285 21.086,109.106 21.297,110.267 21.431 C 111.883 21.617,112.353 21.740,112.271 21.954 C 112.212 22.108,112.290 22.235,112.445 22.237 C 112.663 22.239,112.656 22.286,112.416 22.442 C 112.145 22.616,112.149 22.643,112.445 22.646 C 112.633 22.648,112.845 22.497,112.917 22.311 C 113.243 21.460,115.948 22.416,115.948 23.381 C 115.948 23.981,117.389 24.148,117.926 23.610 C 118.753 22.783,114.596 21.335,110.442 21.002 C 108.956 20.884,106.945 20.645,105.974 20.471 C 105.003 20.298,104.114 20.169,104.000 20.184 C 103.886 20.200,103.584 20.253,103.329 20.302 M16.558 21.210 C 16.880 21.856,16.888 22.311,16.655 26.697 C 16.309 33.219,16.198 34.302,15.947 33.651 C 15.760 33.168,15.736 33.189,15.463 34.078 C 15.055 35.404,15.067 38.026,15.481 38.026 C 15.652 38.026,15.792 38.197,15.792 38.407 C 15.792 39.327,16.108 38.971,16.354 37.774 C 17.049 34.388,17.255 21.455,16.623 20.883 C 16.209 20.508,16.209 20.510,16.558 21.210 M161.031 23.179 C 160.816 23.438,160.793 26.398,160.913 38.400 C 161.055 52.619,161.178 56.608,161.637 61.877 C 161.749 63.167,161.909 67.118,161.991 70.657 C 162.076 74.312,162.222 77.091,162.331 77.091 C 162.441 77.091,162.473 76.197,162.407 74.961 C 162.063 68.548,162.046 61.168,162.375 60.895 C 162.736 60.595,162.881 53.195,162.525 53.195 C 162.428 53.195,162.248 52.984,162.124 52.727 L 161.898 52.260 161.856 52.779 C 161.833 53.068,161.741 52.837,161.649 52.260 C 161.347 50.367,160.946 23.954,161.210 23.374 C 161.480 22.783,161.417 22.714,161.031 23.179 M118.580 23.203 C 118.246 23.537,118.474 23.868,119.013 23.831 C 119.494 23.798,119.595 23.883,119.650 24.364 C 119.739 25.137,120.519 25.184,120.519 24.416 C 120.519 23.503,119.141 22.642,118.580 23.203 M54.512 24.311 C 54.265 24.411,54.001 24.686,53.926 24.922 C 53.775 25.399,53.987 26.290,54.201 26.076 C 54.345 25.932,54.373 25.810,54.416 25.157 C 54.449 24.646,55.117 24.428,55.732 24.727 L 56.208 24.959 55.717 24.531 C 55.174 24.058,55.151 24.054,54.512 24.311 M122.066 24.621 C 121.687 24.912,121.706 24.928,122.388 24.881 C 123.068 24.834,123.120 24.876,123.234 25.558 C 123.354 26.276,123.358 26.279,123.514 25.734 C 123.835 24.612,122.956 23.938,122.066 24.621 M124.351 25.664 C 123.972 25.958,123.980 25.965,124.498 25.781 C 125.201 25.531,125.659 25.861,125.774 26.701 C 125.855 27.291,125.861 27.285,125.891 26.587 C 125.940 25.431,125.213 24.995,124.351 25.664 M51.243 25.887 C 51.050 26.389,51.093 27.221,51.311 27.221 C 51.418 27.221,51.534 26.964,51.571 26.649 C 51.628 26.153,51.718 26.085,52.260 26.133 C 52.853 26.185,52.863 26.172,52.480 25.873 C 51.957 25.465,51.402 25.472,51.243 25.887 M126.616 26.753 C 126.401 26.953,126.316 27.047,126.427 26.961 C 127.052 26.478,128.000 26.974,128.000 27.784 C 128.000 28.224,128.066 28.254,128.791 28.138 C 129.536 28.019,131.489 28.961,131.549 29.469 C 131.771 31.323,131.836 31.475,132.438 31.547 C 132.744 31.583,132.949 31.686,132.893 31.776 C 132.616 32.224,133.374 32.703,134.287 32.655 C 134.969 32.620,135.255 32.693,135.345 32.927 C 135.412 33.103,135.641 33.247,135.853 33.247 C 136.065 33.247,136.840 33.853,137.574 34.594 C 139.650 36.689,140.052 37.180,140.052 37.625 C 140.052 37.853,140.192 38.093,140.364 38.159 C 140.548 38.229,140.677 38.545,140.679 38.931 C 140.681 39.429,140.729 39.510,140.883 39.273 C 141.208 38.769,141.122 38.118,140.675 37.714 C 140.447 37.507,140.260 37.220,140.260 37.074 C 140.260 36.742,136.727 33.039,136.410 33.039 C 136.282 33.039,135.957 32.805,135.688 32.519 C 135.420 32.234,135.092 32.000,134.959 32.000 C 134.826 32.000,134.305 31.596,133.800 31.103 C 133.296 30.609,132.714 30.143,132.506 30.065 C 132.299 29.988,132.179 29.844,132.240 29.746 C 132.458 29.393,130.024 27.636,129.318 27.636 C 129.084 27.636,128.599 27.356,128.241 27.013 C 127.491 26.296,127.164 26.244,126.616 26.753 M49.050 27.104 C 48.914 27.268,48.535 27.461,48.208 27.532 C 47.881 27.604,47.497 27.803,47.354 27.975 C 47.212 28.147,46.808 28.434,46.457 28.614 C 45.830 28.936,45.349 29.295,43.792 30.607 C 43.078 31.209,42.533 33.153,43.193 32.744 C 43.292 32.683,43.331 32.415,43.280 32.148 C 43.180 31.622,44.732 30.130,45.378 30.130 C 45.555 30.130,45.797 29.947,45.917 29.724 C 46.498 28.639,48.690 27.623,49.440 28.091 C 49.751 28.285,49.907 28.280,50.165 28.066 C 50.642 27.670,50.569 27.082,50.026 26.936 C 49.372 26.761,49.328 26.768,49.050 27.104 M74.487 38.961 C 74.487 45.475,74.513 48.110,74.545 44.816 C 74.578 41.523,74.577 36.193,74.545 32.972 C 74.513 29.752,74.487 32.447,74.487 38.961 M39.273 35.207 C 39.273 35.371,39.062 35.567,38.805 35.644 C 38.305 35.794,36.364 37.575,36.364 37.884 C 36.364 37.986,36.130 38.348,35.844 38.687 C 35.239 39.406,35.184 39.938,35.672 40.338 C 35.984 40.594,36.006 40.571,35.888 40.113 C 35.673 39.279,37.725 36.441,38.649 36.295 C 39.674 36.134,40.578 35.697,40.280 35.508 C 40.072 35.377,40.067 35.330,40.260 35.328 C 40.403 35.326,40.519 35.231,40.519 35.117 C 40.519 35.003,40.239 34.909,39.896 34.909 C 39.494 34.909,39.273 35.015,39.273 35.207 M140.987 39.876 C 141.216 39.973,141.460 40.019,141.531 39.979 C 142.035 39.691,142.409 40.771,142.041 41.454 C 141.608 42.258,141.720 42.805,142.319 42.805 C 142.544 42.805,142.787 42.899,142.857 43.013 C 142.928 43.127,143.202 43.221,143.467 43.221 C 144.080 43.221,144.390 43.596,144.452 44.415 C 144.480 44.771,144.553 45.058,144.615 45.052 C 145.066 45.011,145.256 45.205,145.569 46.026 C 145.766 46.540,145.998 46.961,146.086 46.961 C 146.569 46.961,146.895 49.329,146.442 49.542 C 146.299 49.609,146.438 49.630,146.752 49.588 C 147.637 49.471,148.094 50.305,147.632 51.195 C 147.477 51.495,147.434 51.740,147.537 51.740 C 148.252 51.740,148.256 49.798,147.544 49.153 C 147.326 48.956,147.086 48.431,147.011 47.988 C 146.936 47.544,146.715 46.968,146.520 46.707 C 146.325 46.447,145.849 45.598,145.462 44.821 C 145.075 44.044,144.471 43.148,144.119 42.830 C 143.423 42.200,143.081 41.734,142.730 40.935 C 142.604 40.649,142.431 40.275,142.346 40.104 C 142.256 39.921,141.857 39.773,141.382 39.747 C 140.779 39.713,140.678 39.746,140.987 39.876 M33.496 42.431 C 33.163 42.764,33.182 43.060,33.568 43.545 C 33.872 43.925,33.882 43.910,33.760 43.273 C 33.635 42.629,33.659 42.597,34.269 42.597 C 34.621 42.597,34.909 42.504,34.909 42.390 C 34.909 42.097,33.797 42.130,33.496 42.431 M32.210 44.777 C 31.900 45.150,32.101 46.130,32.487 46.130 C 32.671 46.130,32.730 45.928,32.668 45.506 C 32.583 44.928,32.623 44.883,33.223 44.883 C 33.579 44.883,33.870 44.790,33.870 44.675 C 33.870 44.349,32.495 44.433,32.210 44.777 M31.121 46.909 C 30.985 47.223,30.706 47.704,30.502 47.976 C 30.297 48.249,30.130 48.679,30.130 48.932 C 30.130 49.185,29.861 49.764,29.532 50.218 C 29.202 50.673,28.825 51.548,28.693 52.163 C 28.561 52.778,28.312 53.437,28.140 53.627 C 27.469 54.369,27.409 56.903,28.058 57.101 C 28.304 57.177,28.313 57.142,28.104 56.919 C 27.504 56.283,27.994 54.273,28.738 54.321 C 29.342 54.359,29.545 54.035,29.159 53.649 C 28.529 53.019,30.204 48.908,30.889 49.403 C 31.345 49.732,31.584 49.357,31.584 48.312 C 31.584 47.180,31.703 47.023,32.468 47.144 C 32.553 47.158,32.623 46.982,32.623 46.753 C 32.623 46.058,31.435 46.181,31.121 46.909 M147.325 52.247 C 147.325 52.443,147.519 52.532,147.889 52.507 C 148.363 52.474,148.472 52.567,148.573 53.091 C 148.684 53.672,148.708 53.686,148.919 53.299 C 149.312 52.578,148.911 51.948,148.059 51.948 C 147.559 51.948,147.325 52.043,147.325 52.247 M74.483 60.571 C 74.483 64.343,74.511 65.915,74.545 64.065 C 74.579 62.215,74.579 59.130,74.545 57.208 C 74.511 55.286,74.483 56.800,74.483 60.571 M148.410 55.726 C 148.459 55.877,148.750 56.030,149.055 56.066 C 149.744 56.147,150.105 56.781,149.949 57.636 L 149.829 58.286 150.135 57.728 C 150.670 56.750,150.144 55.603,149.121 55.519 C 148.531 55.470,148.343 55.525,148.410 55.726 M26.956 57.818 C 26.454 58.196,26.282 59.638,26.677 60.156 C 26.976 60.547,26.987 60.528,26.877 59.821 C 26.726 58.854,27.083 58.182,27.748 58.182 C 28.064 58.182,28.260 58.063,28.260 57.870 C 28.260 57.487,27.438 57.454,26.956 57.818 M149.610 60.057 C 149.610 60.174,149.899 60.328,150.252 60.398 C 151.083 60.565,151.445 61.291,151.123 62.145 C 150.878 62.794,151.058 62.950,151.475 62.449 C 151.790 62.069,151.571 60.588,151.135 60.152 C 150.787 59.804,149.610 59.731,149.610 60.057 M26.231 61.944 C 25.412 62.248,25.077 63.776,25.664 64.532 C 25.960 64.914,25.966 64.907,25.789 64.407 C 25.483 63.543,26.037 62.464,26.701 62.631 C 27.120 62.736,27.221 62.684,27.221 62.364 C 27.221 61.872,26.849 61.714,26.231 61.944 M15.466 63.273 C 15.673 63.844,15.618 69.638,15.367 73.648 C 15.162 76.944,15.408 78.850,15.661 75.915 C 15.947 72.594,15.907 63.409,15.606 63.128 C 15.362 62.900,15.340 62.924,15.466 63.273 M150.899 63.834 C 150.391 64.342,150.591 65.359,151.209 65.410 C 151.961 65.472,152.508 66.635,151.948 66.981 C 151.793 67.077,151.785 67.413,151.885 69.610 C 151.927 70.521,151.971 70.647,152.104 70.234 C 152.195 69.948,152.280 69.831,152.291 69.974 C 152.302 70.117,152.452 70.234,152.623 70.234 C 152.807 70.234,152.936 70.426,152.938 70.701 C 152.940 70.958,153.127 72.048,153.354 73.122 C 153.865 75.546,153.867 75.857,153.368 75.987 C 153.034 76.075,152.976 76.263,153.009 77.163 C 153.051 78.325,153.280 78.492,154.115 77.969 C 154.454 77.757,154.752 77.737,155.310 77.891 C 155.718 78.004,156.052 78.020,156.052 77.926 C 156.052 77.832,155.701 77.673,155.273 77.572 L 154.494 77.388 154.362 76.045 C 154.290 75.306,154.084 74.140,153.904 73.455 C 153.724 72.769,153.483 71.163,153.368 69.886 C 153.000 65.806,151.820 62.913,150.899 63.834 M24.744 68.655 C 24.075 69.462,24.009 71.320,24.641 71.562 C 24.890 71.658,24.903 71.600,24.713 71.246 C 24.233 70.348,24.810 69.074,25.639 69.202 C 25.880 69.239,26.184 68.743,26.052 68.529 C 25.884 68.257,25.004 68.342,24.744 68.655 M74.483 76.156 C 74.483 79.927,74.511 81.499,74.545 79.650 C 74.579 77.800,74.579 74.714,74.545 72.792 C 74.511 70.871,74.483 72.384,74.483 76.156 M16.634 76.766 C 16.371 77.083,16.392 77.093,16.872 76.874 C 17.867 76.421,19.740 76.979,19.740 77.729 C 19.740 78.629,20.875 78.647,20.944 77.748 C 21.022 76.719,17.364 75.886,16.634 76.766 M157.800 76.663 C 156.482 76.979,156.051 78.338,157.270 78.338 C 157.786 78.338,157.852 78.272,157.769 77.837 C 157.634 77.134,158.329 76.814,160.030 76.795 C 160.790 76.786,161.304 76.711,161.173 76.627 C 160.874 76.435,158.655 76.459,157.800 76.663 M23.650 77.327 C 23.500 77.422,23.131 77.502,22.831 77.503 C 22.530 77.505,22.156 77.665,21.999 77.858 C 21.802 78.102,21.795 78.161,21.976 78.052 C 22.120 77.966,22.868 77.778,23.638 77.634 C 24.719 77.432,24.911 77.348,24.481 77.263 C 24.174 77.203,23.800 77.232,23.650 77.327 M74.489 104.000 C 74.489 113.257,74.514 117.075,74.545 112.483 C 74.577 107.892,74.577 100.318,74.545 95.652 C 74.514 90.986,74.489 94.743,74.489 104.000 M15.703 97.714 C 15.517 99.954,15.455 133.818,15.636 133.818 C 15.722 133.818,15.794 125.800,15.795 116.000 C 15.797 106.200,15.875 98.062,15.968 97.915 C 16.104 97.701,19.461 97.650,32.877 97.659 C 50.511 97.670,50.701 97.660,50.701 96.732 L 50.701 96.208 33.264 96.208 L 15.828 96.208 15.703 97.714 M126.857 96.580 C 126.246 96.928,125.994 97.800,126.390 98.198 C 126.475 98.284,126.545 105.960,126.545 115.255 C 126.545 132.017,126.549 132.156,126.961 132.156 C 127.373 132.156,127.377 132.017,127.377 115.253 C 127.377 99.185,127.395 98.333,127.754 98.009 C 128.133 97.665,161.337 97.437,161.882 97.774 C 162.002 97.848,162.078 104.318,162.079 114.454 C 162.081 130.562,162.156 133.818,162.524 133.818 C 162.844 133.818,162.746 98.587,162.423 97.812 C 162.270 97.444,162.161 96.932,162.181 96.675 L 162.216 96.208 144.848 96.217 C 128.861 96.225,127.431 96.253,126.857 96.580 M238.448 96.673 C 238.470 96.931,238.412 97.241,238.319 97.360 C 238.106 97.634,237.969 133.818,238.182 133.818 C 238.268 133.818,238.338 125.826,238.338 116.057 L 238.338 98.296 238.951 97.979 C 239.733 97.575,272.541 97.492,273.289 97.893 C 274.463 98.521,274.873 98.380,274.857 97.352 C 274.850 96.828,274.773 96.356,274.688 96.303 C 274.602 96.250,274.576 96.418,274.630 96.675 L 274.727 97.143 274.450 96.680 L 274.172 96.217 256.289 96.210 L 238.407 96.203 238.448 96.673 M348.750 96.519 C 348.816 96.691,348.774 96.831,348.657 96.831 C 348.539 96.831,348.498 96.921,348.566 97.030 C 348.633 97.139,348.822 97.178,348.984 97.115 C 349.146 97.053,349.492 97.150,349.751 97.332 C 350.172 97.627,352.012 97.662,367.089 97.662 C 382.277 97.662,383.968 97.695,384.082 97.991 C 384.151 98.172,384.216 105.863,384.226 115.082 C 384.243 130.330,384.328 134.313,384.624 133.714 C 384.786 133.387,384.488 97.858,384.316 96.987 L 384.162 96.208 366.708 96.208 C 350.176 96.208,349.261 96.227,349.381 96.571 C 349.501 96.918,349.494 96.918,349.224 96.571 C 348.878 96.126,348.587 96.094,348.750 96.519 M74.489 141.714 C 74.489 150.914,74.514 154.678,74.545 150.078 C 74.577 145.478,74.577 137.951,74.545 133.351 C 74.514 128.751,74.489 132.514,74.489 141.714 M102.237 158.854 C 101.795 159.386,102.026 166.821,102.508 167.556 C 102.750 167.925,102.954 168.818,103.076 170.040 C 103.317 172.443,103.412 172.834,103.909 173.466 C 104.130 173.748,104.313 174.176,104.315 174.418 C 104.316 174.659,104.452 175.091,104.616 175.377 C 104.779 175.662,105.120 176.302,105.371 176.798 C 105.623 177.294,105.956 177.748,106.110 177.807 C 106.264 177.866,106.390 178.038,106.390 178.189 C 106.390 178.340,106.609 178.636,106.876 178.846 C 107.144 179.056,107.474 179.437,107.611 179.692 C 107.747 179.947,107.972 180.155,108.111 180.154 C 108.250 180.153,108.611 180.453,108.913 180.821 C 109.462 181.489,110.545 181.459,110.545 180.776 C 110.545 180.629,110.396 180.637,110.092 180.800 C 109.704 181.007,109.581 180.972,109.247 180.560 C 109.032 180.294,108.653 179.976,108.404 179.851 C 108.155 179.727,107.920 179.441,107.880 179.216 C 107.841 178.990,107.669 178.696,107.498 178.562 C 107.327 178.428,107.205 178.101,107.227 177.835 C 107.302 176.924,107.242 176.818,106.725 176.948 C 106.151 177.092,105.558 176.429,105.558 175.642 C 105.558 175.366,105.432 175.169,105.255 175.169 C 104.792 175.169,104.409 173.686,104.720 173.104 C 105.006 172.571,104.944 172.458,104.340 172.413 C 103.528 172.351,102.797 167.650,103.555 167.359 C 104.095 167.152,103.951 166.736,103.343 166.745 C 102.904 166.752,102.751 166.624,102.604 166.130 C 102.287 165.060,102.144 159.517,102.420 159.001 C 102.701 158.477,102.610 158.404,102.237 158.854 M74.234 167.570 C 74.758 168.249,74.241 169.874,73.457 170.011 C 72.827 170.120,72.784 170.805,73.407 170.805 C 74.504 170.805,75.258 168.647,74.463 167.785 C 74.251 167.556,74.148 167.459,74.234 167.570 M73.101 172.094 C 73.528 172.520,73.392 173.488,72.831 174.008 C 72.545 174.273,72.312 174.715,72.312 174.991 C 72.312 175.604,71.773 176.416,71.365 176.416 C 71.190 176.416,71.065 176.616,71.065 176.895 C 71.065 177.471,70.379 178.440,69.278 179.416 C 68.832 179.811,68.230 180.373,67.940 180.665 C 67.593 181.014,67.185 181.195,66.745 181.195 C 66.347 181.195,66.099 181.292,66.130 181.436 C 66.158 181.569,65.948 181.742,65.662 181.822 L 65.143 181.966 65.728 182.126 C 66.199 182.255,66.375 182.199,66.623 181.844 C 66.793 181.601,67.112 181.403,67.332 181.403 C 67.551 181.403,67.884 181.169,68.071 180.883 C 68.258 180.597,68.530 180.364,68.674 180.364 C 69.142 180.364,71.481 177.845,71.481 177.340 C 71.481 177.183,71.667 176.954,71.895 176.832 C 72.158 176.691,72.358 176.300,72.445 175.757 C 72.527 175.247,72.778 174.734,73.070 174.480 C 73.738 173.898,73.745 171.844,73.079 171.844 C 72.927 171.844,72.934 171.927,73.101 172.094 M110.791 181.309 C 110.879 182.342,112.623 183.014,112.623 182.015 C 112.623 181.873,112.492 181.874,112.223 182.018 C 111.625 182.338,111.169 182.067,111.169 181.393 C 111.169 181.069,111.069 180.742,110.947 180.667 C 110.802 180.577,110.748 180.796,110.791 181.309 M63.723 181.957 C 63.647 182.033,63.584 182.310,63.584 182.573 C 63.584 183.186,62.905 183.576,62.351 183.280 C 61.762 182.964,61.547 183.030,62.014 183.383 C 62.898 184.052,64.208 183.483,64.208 182.430 C 64.208 181.844,64.019 181.660,63.723 181.957 M113.455 182.330 C 113.455 183.412,115.075 184.117,115.829 183.362 C 116.312 182.879,116.226 182.801,115.636 183.188 C 114.959 183.632,114.078 183.148,114.078 182.333 C 114.078 182.014,113.959 181.818,113.766 181.818 C 113.574 181.818,113.455 182.014,113.455 182.330 M59.013 183.458 C 59.013 183.836,58.878 184.114,58.649 184.207 C 57.728 184.582,57.204 184.655,56.725 184.476 C 56.441 184.369,55.413 184.258,54.442 184.229 C 53.470 184.200,51.158 184.099,49.304 184.004 L 45.932 183.832 45.744 184.332 C 45.640 184.606,45.589 184.889,45.630 184.959 C 45.711 185.098,44.892 185.904,44.757 185.818 C 44.079 185.389,44.026 185.732,44.070 190.354 C 44.112 194.706,44.134 194.936,44.499 194.841 C 44.710 194.785,44.839 194.813,44.783 194.902 C 44.728 194.992,44.906 195.065,45.179 195.065 C 45.769 195.065,45.978 194.375,45.691 193.374 C 45.590 193.020,45.506 191.224,45.506 189.384 C 45.506 185.180,45.378 185.351,48.536 185.351 C 52.929 185.350,58.436 184.944,59.221 184.562 C 60.189 184.090,60.424 182.857,59.546 182.857 C 59.097 182.857,59.013 182.952,59.013 183.458 M117.610 183.595 C 117.610 184.915,120.093 185.310,128.987 185.404 L 133.818 185.455 133.818 184.789 C 133.818 183.861,133.353 183.805,126.986 183.964 C 122.537 184.075,121.646 184.149,121.333 184.432 C 120.560 185.132,118.234 184.336,118.234 183.372 C 118.234 183.053,118.115 182.857,117.922 182.857 C 117.704 182.857,117.610 183.078,117.610 183.595 " stroke="none" fill="#e43c8e" fill-rule="evenodd"></path><path id="path3" d="M17.662 13.126 C 18.519 13.203,50.828 13.272,89.460 13.279 C 128.092 13.287,160.141 13.354,160.681 13.428 C 161.221 13.502,161.662 13.480,161.662 13.379 C 161.661 13.278,161.217 13.172,160.675 13.145 C 158.234 13.021,16.277 13.002,17.662 13.126 M71.688 21.099 C 71.517 21.134,70.371 21.277,69.143 21.417 L 66.909 21.672 66.909 22.264 C 66.909 22.848,66.928 22.857,68.104 22.854 C 68.761 22.852,69.185 22.779,69.047 22.691 C 67.930 21.981,69.432 21.444,72.831 21.338 L 74.078 21.299 74.077 21.955 C 74.077 22.316,74.147 22.567,74.233 22.514 C 74.478 22.362,74.417 21.513,74.140 21.236 C 73.917 21.013,72.499 20.933,71.688 21.099 M103.346 21.180 C 102.743 21.441,102.612 21.702,102.769 22.328 C 102.949 23.044,103.222 23.002,103.115 22.275 C 102.988 21.407,103.597 21.217,105.870 21.417 C 106.899 21.507,107.846 21.587,107.976 21.596 C 108.308 21.616,108.465 22.361,108.194 22.632 C 108.032 22.794,108.302 22.857,109.153 22.857 C 110.313 22.857,110.338 22.845,110.338 22.274 C 110.338 21.697,110.314 21.687,108.519 21.441 C 105.760 21.062,103.841 20.966,103.346 21.180 M16.458 23.294 C 16.392 26.403,16.196 27.884,15.869 27.758 C 15.431 27.590,15.142 28.382,15.210 29.565 C 15.252 30.296,15.357 30.632,15.532 30.597 C 15.675 30.569,15.792 30.658,15.792 30.795 C 15.792 30.953,15.865 30.972,15.990 30.846 C 16.270 30.567,16.663 25.405,16.575 23.169 L 16.501 21.299 16.458 23.294 M113.152 22.426 C 113.049 22.594,113.159 22.627,113.522 22.536 C 114.293 22.343,114.972 22.780,114.855 23.395 C 114.781 23.779,114.849 23.896,115.146 23.896 C 115.622 23.896,115.680 23.031,115.229 22.656 C 114.793 22.295,113.334 22.133,113.152 22.426 M62.182 22.579 C 61.756 22.751,61.854 23.896,62.294 23.896 C 62.563 23.896,62.663 23.738,62.658 23.325 C 62.650 22.814,62.716 22.759,63.273 22.811 C 63.750 22.855,63.823 22.820,63.584 22.658 C 63.257 22.438,62.622 22.402,62.182 22.579 M58.113 23.827 C 57.923 24.017,57.937 24.937,58.130 24.928 C 58.216 24.925,58.473 24.772,58.701 24.589 C 59.039 24.318,59.049 24.279,58.753 24.381 C 58.215 24.567,58.311 24.122,58.857 23.903 C 59.317 23.718,59.316 23.714,58.788 23.701 C 58.493 23.694,58.189 23.751,58.113 23.827 M54.788 24.866 C 54.580 25.074,54.621 26.182,54.836 26.182 C 54.939 26.182,55.004 25.905,54.981 25.566 C 54.953 25.159,55.048 24.920,55.261 24.863 C 55.548 24.785,55.548 24.773,55.255 24.751 C 55.074 24.738,54.864 24.790,54.788 24.866 M121.805 25.403 C 121.931 26.305,122.805 26.331,122.805 25.432 C 122.805 25.037,122.696 24.935,122.273 24.935 C 121.840 24.935,121.752 25.022,121.805 25.403 M161.379 34.805 C 161.489 47.668,161.560 48.831,162.227 48.831 L 162.730 48.831 162.630 45.558 C 162.576 43.758,162.441 41.818,162.332 41.247 L 162.133 40.208 162.106 41.091 C 162.044 43.050,161.661 41.872,161.633 39.636 C 161.617 38.351,161.534 34.540,161.449 31.169 C 161.324 26.176,161.311 26.850,161.379 34.805 M124.980 26.047 C 125.232 26.232,125.324 26.480,125.247 26.774 C 125.182 27.020,125.215 27.221,125.318 27.221 C 125.652 27.221,125.526 26.026,125.178 25.892 C 124.645 25.688,124.569 25.747,124.980 26.047 M126.909 27.150 C 127.192 27.210,127.377 27.403,127.377 27.639 C 127.377 27.852,127.477 28.090,127.600 28.166 C 127.745 28.255,127.800 28.095,127.756 27.710 C 127.699 27.214,127.587 27.112,127.065 27.084 C 126.646 27.062,126.595 27.084,126.909 27.150 M47.953 28.337 C 47.796 28.493,47.369 28.776,47.003 28.965 C 46.481 29.235,46.338 29.442,46.338 29.927 C 46.338 30.686,46.645 30.753,46.707 30.007 C 46.770 29.251,46.910 29.091,47.512 29.091 C 47.859 29.091,48.075 28.953,48.145 28.687 C 48.203 28.465,48.451 28.244,48.697 28.196 L 49.143 28.109 48.690 28.080 C 48.441 28.065,48.109 28.180,47.953 28.337 M128.458 28.623 C 128.559 29.224,129.053 29.454,130.009 29.346 C 130.901 29.246,130.909 29.251,130.909 29.895 C 130.909 30.253,131.003 30.545,131.117 30.545 C 131.909 30.545,131.027 28.904,130.227 28.890 C 130.024 28.886,129.803 28.743,129.737 28.571 C 129.558 28.105,128.379 28.152,128.458 28.623 M44.883 30.753 C 44.761 30.982,44.496 31.169,44.294 31.169 C 44.092 31.169,43.815 31.281,43.678 31.418 C 43.377 31.719,43.344 32.831,43.636 32.831 C 43.751 32.831,43.833 32.761,43.820 32.675 C 43.655 31.632,43.826 31.445,44.863 31.535 C 45.772 31.614,45.897 31.574,46.028 31.162 C 46.279 30.372,45.278 30.015,44.883 30.753 M135.150 33.693 C 135.046 33.860,135.166 33.890,135.556 33.792 C 136.014 33.677,136.150 33.743,136.347 34.177 C 136.483 34.474,136.760 34.701,136.988 34.701 C 137.220 34.701,137.437 34.884,137.502 35.133 C 137.564 35.370,137.836 35.648,138.106 35.751 C 138.473 35.891,138.597 36.097,138.597 36.566 C 138.597 37.056,138.689 37.195,139.013 37.195 C 139.320 37.195,139.429 37.333,139.429 37.727 C 139.429 38.028,139.519 38.203,139.636 38.130 C 139.990 37.911,139.866 37.290,139.377 36.833 C 139.119 36.593,138.582 35.968,138.183 35.445 C 137.783 34.922,137.350 34.494,137.220 34.494 C 137.089 34.494,136.830 34.260,136.642 33.974 C 136.284 33.428,135.415 33.264,135.150 33.693 M37.541 37.446 C 37.122 37.927,36.779 38.477,36.779 38.668 C 36.779 38.858,36.593 39.143,36.365 39.299 C 35.854 39.650,36.009 40.519,36.582 40.519 C 37.054 40.519,37.256 39.916,37.086 39.011 C 36.973 38.407,37.025 38.283,37.475 38.078 C 37.764 37.946,38.024 37.630,38.062 37.362 C 38.117 36.974,38.257 36.883,38.805 36.885 C 39.177 36.886,39.481 36.816,39.481 36.729 C 39.481 36.185,38.240 36.644,37.541 37.446 M140.864 40.296 C 141.025 40.398,141.282 40.433,141.434 40.375 C 141.594 40.313,141.795 40.476,141.908 40.758 C 142.022 41.043,142.109 41.113,142.117 40.925 C 142.136 40.451,141.704 40.103,141.101 40.107 C 140.710 40.109,140.648 40.159,140.864 40.296 M33.870 43.359 C 33.870 43.664,33.940 43.843,34.026 43.758 C 34.112 43.672,34.182 43.493,34.182 43.359 C 34.182 43.226,34.291 43.117,34.424 43.117 C 34.558 43.117,34.737 43.047,34.823 42.961 C 34.908 42.875,34.729 42.805,34.424 42.805 C 33.962 42.805,33.870 42.898,33.870 43.359 M142.753 44.117 C 142.753 44.718,143.208 45.154,143.730 45.053 C 144.474 44.910,144.220 43.751,143.429 43.675 C 142.833 43.618,142.753 43.670,142.753 44.117 M144.050 45.553 C 144.097 45.692,144.362 45.863,144.639 45.931 C 145.031 46.028,145.134 46.179,145.104 46.612 C 145.082 46.918,145.152 47.169,145.260 47.169 C 145.521 47.169,145.508 46.202,145.239 45.701 C 145.002 45.257,143.906 45.121,144.050 45.553 M145.039 47.645 C 145.039 47.800,145.278 47.909,145.610 47.904 C 146.131 47.897,146.182 47.964,146.182 48.656 C 146.182 49.074,146.252 49.372,146.338 49.319 C 146.524 49.203,146.536 48.492,146.363 47.844 C 146.223 47.323,145.039 47.144,145.039 47.645 M30.137 50.376 C 29.988 50.654,29.915 51.067,29.974 51.293 C 30.047 51.571,29.962 51.736,29.712 51.801 C 29.264 51.918,28.981 53.035,29.268 53.548 C 29.433 53.843,29.467 53.772,29.439 53.192 C 29.405 52.522,29.446 52.471,29.975 52.510 C 30.543 52.552,30.547 52.543,30.495 51.370 C 30.445 50.270,30.474 50.187,30.916 50.161 C 31.640 50.120,31.739 49.870,31.031 49.870 C 30.584 49.870,30.332 50.013,30.137 50.376 M146.078 50.051 C 146.078 50.150,146.362 50.198,146.709 50.158 C 147.206 50.100,147.380 50.183,147.527 50.549 C 147.643 50.836,147.719 50.890,147.727 50.691 C 147.734 50.514,147.628 50.257,147.491 50.119 C 147.205 49.834,146.078 49.779,146.078 50.051 M147.404 53.027 C 147.320 53.163,147.362 53.311,147.497 53.356 C 147.632 53.401,147.693 53.518,147.633 53.616 C 147.573 53.713,147.713 53.779,147.944 53.761 C 148.522 53.718,148.538 52.779,147.960 52.779 C 147.738 52.779,147.488 52.891,147.404 53.027 M28.153 55.288 C 28.075 55.639,28.068 55.981,28.136 56.049 C 28.204 56.118,28.260 55.972,28.260 55.727 C 28.260 55.354,28.361 55.293,28.883 55.353 C 29.379 55.411,29.506 55.347,29.506 55.038 C 29.506 54.303,28.321 54.521,28.153 55.288 M148.364 56.587 C 148.364 56.776,148.562 56.834,148.987 56.772 C 149.624 56.678,149.682 56.758,149.638 57.662 L 149.617 58.078 149.792 57.662 C 150.071 56.999,149.645 56.312,148.954 56.312 C 148.602 56.312,148.364 56.423,148.364 56.587 M27.044 58.925 C 26.732 59.609,26.741 59.799,27.065 59.382 C 27.208 59.198,27.493 59.017,27.699 58.979 C 28.228 58.881,28.241 58.548,27.719 58.468 C 27.417 58.422,27.209 58.563,27.044 58.925 M149.610 60.883 C 149.610 60.997,149.727 61.102,149.870 61.115 C 150.013 61.128,150.266 61.151,150.432 61.167 C 150.598 61.182,150.799 61.429,150.878 61.714 C 150.977 62.069,151.030 62.114,151.044 61.856 C 151.080 61.210,150.663 60.675,150.123 60.675 C 149.841 60.675,149.610 60.769,149.610 60.883 M162.388 61.093 C 162.249 61.318,162.428 72.183,162.623 75.377 C 162.722 77.004,162.794 77.299,163.095 77.299 C 163.823 77.299,163.949 76.868,163.913 74.504 C 163.883 72.522,163.859 72.378,163.740 73.455 C 163.664 74.140,163.587 74.499,163.567 74.251 C 163.494 73.307,163.287 73.046,163.015 73.555 C 162.817 73.924,162.739 72.748,162.623 67.650 C 162.543 64.149,162.534 61.194,162.602 61.084 C 162.670 60.973,162.679 60.883,162.622 60.883 C 162.565 60.883,162.460 60.978,162.388 61.093 M25.932 63.532 C 25.883 63.732,25.914 64.130,26.002 64.416 C 26.152 64.903,26.160 64.897,26.120 64.312 C 26.083 63.758,26.142 63.689,26.649 63.697 C 26.982 63.701,27.221 63.593,27.221 63.437 C 27.221 63.012,26.040 63.099,25.932 63.532 M15.305 65.607 C 15.231 66.723,15.170 68.232,15.170 68.961 C 15.169 70.133,15.132 70.254,14.847 70.017 C 14.573 69.790,14.503 69.826,14.380 70.252 C 14.259 70.673,14.216 70.604,14.110 69.818 C 14.039 69.285,13.971 70.200,13.953 71.948 C 13.934 73.874,13.999 75.013,14.130 75.013 C 14.244 75.013,14.344 75.177,14.352 75.377 C 14.365 75.688,14.393 75.680,14.545 75.325 C 14.698 74.969,14.726 74.962,14.739 75.273 C 14.775 76.183,15.169 75.515,15.169 74.543 C 15.169 73.941,15.268 71.266,15.389 68.598 C 15.610 63.726,15.556 61.817,15.305 65.607 M150.649 66.382 C 150.649 67.011,151.431 67.529,151.712 67.086 C 152.127 66.431,151.925 65.870,151.273 65.870 C 150.749 65.870,150.649 65.952,150.649 66.382 M24.817 70.113 C 24.747 70.390,24.735 70.788,24.789 70.997 C 24.859 71.271,24.894 71.230,24.911 70.850 C 24.936 70.293,25.705 70.074,26.023 70.533 C 26.107 70.654,26.177 70.496,26.179 70.182 C 26.183 69.383,25.015 69.324,24.817 70.113 M151.705 72.793 C 151.714 73.271,151.764 73.559,151.816 73.433 C 152.272 72.328,153.530 74.415,153.112 75.584 C 152.903 76.171,153.053 76.193,153.359 75.621 C 153.815 74.768,152.988 71.961,152.274 71.941 C 151.720 71.925,151.689 71.971,151.705 72.793 M13.922 76.482 C 13.922 76.770,14.451 77.299,14.738 77.299 C 14.861 77.299,14.961 77.190,14.961 77.056 C 14.961 76.923,14.900 76.875,14.824 76.951 C 14.636 77.138,14.107 76.673,14.248 76.444 C 14.311 76.343,14.263 76.260,14.142 76.260 C 14.021 76.260,13.922 76.360,13.922 76.482 M17.455 77.066 C 18.081 77.177,18.181 77.274,18.174 77.766 C 18.167 78.226,18.259 78.338,18.641 78.338 C 19.011 78.338,19.117 78.221,19.117 77.813 C 19.117 77.211,18.458 76.866,17.389 76.910 L 16.727 76.938 17.455 77.066 M158.805 77.097 C 158.141 77.365,158.147 78.338,158.813 78.338 C 159.196 78.338,159.288 78.226,159.281 77.766 C 159.273 77.234,159.344 77.186,160.312 77.072 L 161.351 76.948 160.312 76.929 C 159.740 76.918,159.062 76.994,158.805 77.097 M23.065 77.926 C 22.480 78.052,22.592 78.077,23.636 78.054 C 24.350 78.039,24.935 77.956,24.935 77.870 C 24.935 77.684,24.068 77.709,23.065 77.926 M154.182 78.133 C 153.963 78.277,154.086 78.298,154.597 78.204 C 155.494 78.039,155.663 77.921,154.996 77.925 C 154.719 77.927,154.353 78.020,154.182 78.133 M15.169 97.165 C 15.169 97.921,15.105 98.098,14.864 98.005 C 14.696 97.941,14.493 97.995,14.412 98.125 C 14.316 98.281,14.212 98.224,14.109 97.960 C 13.924 97.488,13.868 132.662,14.053 133.351 C 14.378 134.563,15.125 133.920,15.260 132.312 C 15.447 130.093,15.507 96.208,15.325 96.208 C 15.239 96.208,15.169 96.639,15.169 97.165 M162.496 96.661 C 162.503 97.710,162.725 98.078,163.352 98.078 C 164.406 98.078,164.092 96.670,162.961 96.323 C 162.569 96.203,162.494 96.258,162.496 96.661 M384.529 96.987 C 384.616 97.416,384.721 105.524,384.762 115.005 C 384.806 125.306,384.914 132.322,385.030 132.438 C 385.137 132.545,385.195 132.876,385.160 133.173 C 385.124 133.471,385.136 133.551,385.185 133.351 C 385.259 133.054,385.359 133.028,385.729 133.207 C 386.140 133.405,386.148 133.399,385.818 133.131 C 385.372 132.771,385.354 132.571,385.766 132.571 C 386.041 132.571,386.078 130.481,386.078 115.001 C 386.078 100.996,386.025 97.463,385.818 97.592 C 385.141 98.015,384.584 97.360,384.906 96.520 C 384.982 96.324,384.904 96.208,384.698 96.208 C 384.429 96.208,384.399 96.349,384.529 96.987 M237.518 97.870 C 237.647 98.327,237.715 105.112,237.701 116.121 C 237.688 125.758,237.729 133.695,237.791 133.757 C 238.099 134.064,237.929 97.959,237.621 97.552 C 237.337 97.176,237.329 97.202,237.518 97.870 M14.286 122.961 C 14.254 127.275,14.229 123.745,14.229 115.117 C 14.229 106.488,14.254 102.958,14.286 107.273 C 14.317 111.587,14.317 118.647,14.286 122.961 M102.491 162.078 C 102.454 164.964,102.620 165.698,103.327 165.780 C 103.867 165.842,103.896 165.801,103.896 164.975 C 103.896 164.290,103.839 164.152,103.629 164.326 C 103.027 164.826,102.757 164.231,102.634 162.138 L 102.516 160.104 102.491 162.078 M103.502 167.740 C 103.094 168.826,103.776 171.844,104.430 171.844 C 104.774 171.844,104.934 171.728,104.932 171.481 C 104.927 170.911,104.594 170.524,104.229 170.664 C 104.038 170.738,103.891 170.684,103.884 170.539 C 103.877 170.400,103.795 169.818,103.701 169.247 C 103.607 168.675,103.610 167.997,103.708 167.740 C 103.806 167.483,103.839 167.273,103.782 167.273 C 103.725 167.273,103.599 167.483,103.502 167.740 M74.064 167.898 C 74.186 168.531,74.002 168.862,73.472 168.963 C 72.802 169.091,72.800 169.601,73.470 169.522 C 74.142 169.444,74.496 168.577,74.164 167.826 C 73.978 167.407,73.971 167.412,74.064 167.898 M73.046 173.070 C 72.942 173.397,72.769 173.479,72.299 173.424 C 71.963 173.385,71.688 173.434,71.688 173.534 C 71.688 173.633,71.758 173.721,71.844 173.730 C 71.930 173.738,72.197 173.782,72.437 173.828 C 72.845 173.905,73.538 173.001,73.274 172.737 C 73.223 172.686,73.120 172.836,73.046 173.070 M104.877 173.438 C 104.721 174.258,104.904 174.545,105.581 174.545 C 106.068 174.545,106.181 174.457,106.175 174.078 C 106.160 173.032,105.059 172.489,104.877 173.438 M71.862 174.771 C 71.937 175.559,71.920 175.584,71.295 175.584 C 70.940 175.584,70.649 175.678,70.649 175.792 C 70.649 176.140,71.840 176.031,71.978 175.671 C 72.156 175.207,72.135 174.173,71.944 174.056 C 71.856 174.001,71.819 174.323,71.862 174.771 M106.012 175.829 C 106.068 176.413,106.169 176.530,106.664 176.587 C 107.213 176.650,107.245 176.611,107.183 175.963 C 107.127 175.380,107.026 175.262,106.531 175.206 C 105.982 175.143,105.950 175.182,106.012 175.829 M69.716 176.453 C 69.661 176.604,69.638 177.148,69.665 177.662 C 69.709 178.491,69.661 178.605,69.247 178.664 C 68.941 178.707,68.779 178.873,68.779 179.142 C 68.779 179.413,68.566 179.628,68.156 179.771 C 67.742 179.916,67.532 180.129,67.532 180.407 C 67.532 180.760,67.423 180.812,66.820 180.741 C 66.428 180.696,66.153 180.732,66.209 180.823 C 66.446 181.206,67.491 180.977,67.825 180.468 C 68.012 180.182,68.280 179.946,68.420 179.944 C 68.709 179.940,70.026 178.427,70.026 178.099 C 70.026 177.981,70.219 177.782,70.454 177.656 C 71.055 177.334,70.935 176.337,70.285 176.245 C 70.027 176.209,69.771 176.302,69.716 176.453 M108.125 179.020 C 107.959 179.451,108.226 179.740,108.791 179.740 C 109.145 179.740,109.299 179.856,109.299 180.121 C 109.299 180.646,109.432 180.736,110.042 180.619 C 110.815 180.471,110.653 179.679,109.818 179.522 C 109.475 179.458,109.218 179.294,109.247 179.157 C 109.275 179.021,109.229 178.902,109.143 178.893 C 109.057 178.884,108.818 178.845,108.611 178.806 C 108.403 178.766,108.185 178.863,108.125 179.020 M111.429 181.245 C 111.465 181.716,111.591 181.928,111.848 181.951 C 112.082 181.972,112.106 181.949,111.912 181.888 C 111.745 181.835,111.557 181.518,111.493 181.182 C 111.382 180.599,111.379 180.602,111.429 181.245 M63.091 182.047 C 63.008 182.230,62.968 182.510,63.003 182.670 C 63.047 182.876,62.883 182.947,62.442 182.914 C 61.837 182.868,61.834 182.873,62.323 183.077 C 62.962 183.343,63.450 182.920,63.327 182.208 C 63.259 181.814,63.211 181.781,63.091 182.047 M114.286 182.284 C 114.286 182.849,114.642 183.276,115.106 183.266 C 115.372 183.261,115.364 183.223,115.065 183.048 C 114.865 182.932,114.701 182.660,114.701 182.443 C 114.701 182.227,114.608 181.993,114.494 181.922 C 114.377 181.850,114.286 182.010,114.286 182.284 M57.782 183.117 C 57.885 183.912,57.752 184.104,57.091 184.119 C 56.540 184.130,56.492 184.164,56.831 184.298 C 57.651 184.624,58.636 183.984,58.444 183.250 C 58.331 182.819,57.727 182.698,57.782 183.117 M118.649 183.387 C 118.649 184.222,120.529 184.858,121.351 184.302 C 121.589 184.141,121.540 184.118,121.143 184.204 C 120.184 184.413,119.371 184.039,119.419 183.412 C 119.451 182.986,119.367 182.857,119.055 182.857 C 118.759 182.857,118.649 183.000,118.649 183.387 M44.797 184.052 C 44.711 184.138,44.541 184.208,44.419 184.208 C 44.297 184.208,44.165 184.418,44.126 184.675 C 44.068 185.054,44.153 185.143,44.573 185.143 C 45.010 185.143,45.091 185.045,45.091 184.519 C 45.091 183.864,45.050 183.799,44.797 184.052 " stroke="none" fill="#ec60a4" fill-rule="evenodd"></path><path id="path4" d="M16.779 13.241 C 17.151 13.287,17.758 13.287,18.130 13.241 C 18.501 13.195,18.197 13.157,17.455 13.157 C 16.712 13.157,16.408 13.195,16.779 13.241 M160.104 13.501 C 160.501 13.677,161.826 13.796,161.645 13.639 C 161.597 13.598,161.138 13.509,160.623 13.441 C 159.999 13.358,159.826 13.378,160.104 13.501 M70.753 20.983 C 64.915 21.641,64.991 21.622,65.051 22.390 C 65.058 22.475,64.848 22.606,64.584 22.681 C 64.303 22.760,64.687 22.824,65.506 22.836 L 66.909 22.857 66.909 22.270 C 66.909 21.685,66.918 21.681,68.831 21.438 C 73.750 20.812,74.357 20.862,74.414 21.896 C 74.432 22.230,74.460 22.252,74.531 21.985 C 74.831 20.845,73.980 20.620,70.753 20.983 M103.273 20.923 C 102.916 21.051,102.442 21.598,102.442 21.881 C 102.442 21.986,102.621 21.851,102.839 21.581 C 103.322 20.986,104.818 20.933,108.208 21.390 L 110.338 21.678 110.338 22.267 C 110.338 22.983,112.506 23.188,113.057 22.524 C 113.655 21.803,115.532 22.469,115.532 23.402 C 115.532 23.674,115.626 23.896,115.740 23.896 C 116.179 23.896,115.942 22.863,115.426 22.524 C 114.647 22.015,113.081 21.881,112.917 22.311 C 112.845 22.497,112.633 22.648,112.445 22.646 C 112.149 22.643,112.145 22.616,112.416 22.442 C 112.656 22.286,112.663 22.239,112.445 22.237 C 112.290 22.235,112.212 22.108,112.271 21.954 C 112.352 21.741,111.881 21.618,110.267 21.431 C 109.106 21.296,107.455 21.099,106.597 20.992 C 104.875 20.777,103.747 20.754,103.273 20.923 M16.700 23.688 C 16.700 24.888,16.735 25.379,16.777 24.779 C 16.819 24.179,16.819 23.197,16.777 22.597 C 16.735 21.997,16.700 22.488,16.700 23.688 M61.662 22.560 C 61.348 22.731,61.084 22.938,61.075 23.020 C 61.066 23.102,61.028 23.332,60.990 23.532 C 60.939 23.798,61.056 23.896,61.421 23.896 C 61.839 23.896,61.922 23.793,61.922 23.277 C 61.922 22.588,62.542 22.281,63.388 22.549 C 63.697 22.647,63.798 22.620,63.702 22.464 C 63.501 22.138,62.339 22.193,61.662 22.560 M58.117 23.512 C 57.892 23.639,57.775 23.947,57.791 24.374 L 57.815 25.039 57.947 24.425 C 58.039 23.996,58.236 23.774,58.598 23.688 C 58.986 23.596,59.035 23.534,58.793 23.441 C 58.614 23.372,58.310 23.404,58.117 23.512 M161.129 28.675 C 161.129 31.590,161.159 32.782,161.194 31.325 C 161.230 29.868,161.230 27.483,161.194 26.026 C 161.159 24.569,161.129 25.761,161.129 28.675 M118.701 23.824 C 118.112 24.067,118.406 24.935,119.079 24.935 C 119.651 24.935,119.709 24.877,119.650 24.365 C 119.586 23.810,119.228 23.606,118.701 23.824 M54.722 24.679 C 54.436 24.861,54.194 26.182,54.447 26.182 C 54.544 26.182,54.652 25.878,54.688 25.506 C 54.747 24.897,54.814 24.836,55.377 24.877 C 55.841 24.910,55.921 24.872,55.688 24.724 C 55.314 24.486,55.043 24.474,54.722 24.679 M122.545 24.852 C 122.688 24.917,122.805 25.188,122.805 25.455 C 122.805 25.721,122.688 25.987,122.545 26.044 C 122.403 26.102,122.502 26.156,122.766 26.165 C 123.426 26.188,123.363 24.864,122.701 24.785 C 122.473 24.757,122.403 24.787,122.545 24.852 M125.125 25.817 C 125.315 25.971,125.512 26.374,125.561 26.711 L 125.652 27.325 125.683 26.657 C 125.707 26.152,125.600 25.933,125.247 25.762 C 124.839 25.564,124.823 25.571,125.125 25.817 M51.677 26.106 C 51.257 26.527,51.540 27.227,52.114 27.183 C 52.664 27.141,53.116 26.182,52.586 26.182 C 52.482 26.182,52.268 26.132,52.110 26.071 C 51.952 26.011,51.757 26.026,51.677 26.106 M16.346 28.610 C 16.273 29.717,16.119 30.717,16.003 30.833 C 15.860 30.976,15.792 30.975,15.792 30.829 C 15.792 30.711,15.652 30.615,15.481 30.615 C 15.223 30.615,15.173 30.976,15.191 32.710 C 15.212 34.723,15.223 34.772,15.479 33.974 C 15.737 33.170,15.752 33.159,15.944 33.648 C 16.108 34.070,16.163 33.916,16.273 32.713 C 16.510 30.135,16.688 26.597,16.582 26.597 C 16.525 26.597,16.419 27.503,16.346 28.610 M126.473 26.962 C 126.420 27.048,126.670 27.118,127.028 27.118 C 127.584 27.117,127.700 27.209,127.815 27.740 C 127.941 28.320,127.953 28.327,127.975 27.834 C 128.013 27.025,126.851 26.350,126.473 26.962 M47.221 28.589 C 46.621 28.994,46.033 29.506,45.915 29.728 C 45.797 29.949,45.555 30.130,45.378 30.130 C 44.820 30.130,43.218 31.591,43.245 32.077 C 43.268 32.497,43.274 32.498,43.371 32.104 C 43.519 31.501,43.841 31.169,44.278 31.169 C 44.488 31.169,44.764 30.976,44.890 30.740 C 45.073 30.399,45.244 30.338,45.729 30.445 C 46.298 30.570,46.338 30.538,46.338 29.944 C 46.338 29.440,46.475 29.238,47.003 28.965 C 47.369 28.776,47.805 28.485,47.972 28.318 C 48.168 28.122,48.489 28.056,48.876 28.134 C 49.244 28.207,49.426 28.175,49.349 28.049 C 49.105 27.655,48.302 27.858,47.221 28.589 M129.039 28.204 C 129.325 28.257,129.633 28.431,129.725 28.591 C 129.816 28.752,130.050 28.886,130.244 28.890 C 130.837 28.901,131.324 29.416,131.339 30.049 C 131.352 30.561,131.378 30.588,131.518 30.234 C 131.832 29.441,130.227 28.022,129.080 28.080 C 128.521 28.108,128.521 28.109,129.039 28.204 M134.065 33.221 C 134.110 33.816,134.894 34.107,135.185 33.636 C 135.420 33.256,136.306 33.461,136.642 33.974 C 136.830 34.260,137.089 34.494,137.220 34.494 C 137.350 34.494,137.783 34.922,138.183 35.445 C 138.582 35.968,139.119 36.593,139.377 36.833 C 139.838 37.264,139.980 37.821,139.701 38.099 C 139.486 38.315,139.472 39.065,139.683 39.065 C 139.785 39.065,139.818 39.147,139.756 39.247 C 139.695 39.347,139.876 39.429,140.160 39.429 C 140.758 39.429,140.927 38.375,140.364 38.159 C 140.192 38.093,140.052 37.853,140.052 37.625 C 140.052 37.180,139.650 36.689,137.574 34.594 C 136.840 33.853,136.065 33.247,135.853 33.247 C 135.641 33.247,135.414 33.106,135.348 32.935 C 135.105 32.303,134.013 32.546,134.065 33.221 M38.519 36.317 C 37.636 36.455,35.638 39.413,35.947 40.123 C 36.162 40.615,36.164 40.614,36.055 40.060 C 35.972 39.638,36.049 39.441,36.362 39.274 C 36.591 39.151,36.779 38.886,36.779 38.686 C 36.779 38.029,38.236 36.571,38.892 36.571 C 39.216 36.571,39.481 36.494,39.481 36.398 C 39.481 36.218,39.265 36.200,38.519 36.317 M161.391 44.052 C 161.474 50.154,161.710 54.592,161.856 52.779 L 161.898 52.260 162.124 52.727 C 162.554 53.620,162.701 53.183,162.701 51.013 L 162.701 48.831 162.182 48.831 C 161.725 48.831,161.659 48.737,161.633 48.052 C 161.617 47.623,161.534 44.935,161.449 42.078 C 161.314 37.569,161.307 37.829,161.391 44.052 M141.799 40.261 C 142.136 40.658,142.159 40.815,141.952 41.300 C 141.725 41.829,141.730 41.841,142.023 41.467 C 142.451 40.918,142.420 40.653,141.870 40.188 L 141.403 39.792 141.799 40.261 M33.666 42.961 C 33.668 43.195,33.723 43.239,33.821 43.086 C 33.905 42.955,34.208 42.804,34.494 42.751 C 34.933 42.669,34.909 42.650,34.338 42.626 C 33.821 42.604,33.663 42.683,33.666 42.961 M34.270 43.100 C 34.059 43.329,34.200 43.809,34.473 43.789 C 34.900 43.756,35.004 43.082,34.582 43.082 C 34.419 43.082,34.279 43.090,34.270 43.100 M142.753 43.347 C 142.753 43.492,143.057 43.639,143.429 43.675 C 144.064 43.736,144.102 43.786,144.080 44.519 C 144.059 45.204,144.116 45.299,144.540 45.299 C 145.304 45.299,145.867 46.968,145.195 47.239 C 145.052 47.297,145.235 47.351,145.601 47.360 C 146.363 47.379,146.788 48.520,146.315 49.277 C 145.978 49.817,146.008 49.870,146.660 49.870 C 146.980 49.870,147.354 49.982,147.491 50.119 C 147.671 50.299,147.740 50.303,147.740 50.132 C 147.740 49.787,147.297 49.565,146.701 49.612 C 146.416 49.634,146.299 49.600,146.442 49.536 C 146.896 49.333,146.568 46.961,146.086 46.961 C 145.998 46.961,145.766 46.540,145.569 46.026 C 145.256 45.205,145.066 45.011,144.615 45.052 C 144.553 45.058,144.480 44.771,144.452 44.415 C 144.379 43.448,142.753 42.427,142.753 43.347 M32.662 45.455 C 32.760 46.310,33.767 46.327,33.832 45.475 C 33.872 44.943,33.812 44.883,33.236 44.883 C 32.660 44.883,32.602 44.941,32.662 45.455 M32.623 46.961 C 32.623 47.075,32.553 47.158,32.468 47.144 C 31.829 47.043,31.584 47.211,31.584 47.750 C 31.584 48.772,32.692 48.566,32.758 47.532 C 32.785 47.104,32.766 46.753,32.715 46.753 C 32.665 46.753,32.623 46.847,32.623 46.961 M30.259 49.864 C 29.377 50.910,28.721 52.960,29.079 53.551 C 29.270 53.865,29.286 53.841,29.186 53.394 C 29.037 52.730,29.401 51.740,29.794 51.740 C 29.992 51.740,30.054 51.597,29.979 51.311 C 29.796 50.612,30.320 49.870,30.996 49.870 C 31.320 49.870,31.584 49.778,31.584 49.665 C 31.584 49.351,30.562 49.505,30.259 49.864 M147.584 52.499 C 147.127 52.687,147.306 52.933,147.828 52.833 C 148.251 52.752,148.348 52.832,148.429 53.329 C 148.508 53.809,148.520 53.784,148.497 53.197 C 148.468 52.478,148.176 52.255,147.584 52.499 M29.299 54.205 C 29.299 54.304,29.071 54.359,28.793 54.329 C 28.216 54.266,27.826 55.050,27.868 56.187 C 27.893 56.857,27.938 56.737,28.151 55.429 C 28.265 54.733,28.344 54.649,28.893 54.649 C 29.300 54.649,29.506 54.544,29.506 54.338 C 29.506 54.166,29.460 54.026,29.403 54.026 C 29.345 54.026,29.299 54.107,29.299 54.205 M148.364 56.140 C 148.364 56.234,148.638 56.312,148.973 56.312 C 149.407 56.312,149.622 56.436,149.719 56.743 C 149.795 56.980,149.902 57.128,149.958 57.072 C 150.014 57.016,149.961 56.787,149.841 56.562 C 149.627 56.161,148.364 55.801,148.364 56.140 M27.003 58.615 C 26.876 58.854,26.817 59.094,26.873 59.150 C 26.929 59.206,27.037 59.057,27.112 58.819 C 27.215 58.498,27.379 58.410,27.755 58.478 C 28.032 58.529,28.260 58.483,28.260 58.376 C 28.260 57.988,27.235 58.183,27.003 58.615 M149.610 60.464 C 149.610 60.580,149.846 60.675,150.134 60.675 C 150.850 60.675,151.229 61.487,150.887 62.286 C 150.660 62.816,150.666 62.828,150.958 62.454 C 151.340 61.964,151.364 61.285,151.013 60.844 C 150.702 60.453,149.610 60.157,149.610 60.464 M162.304 60.965 C 162.144 61.158,162.086 62.069,162.130 63.718 L 162.196 66.182 162.241 63.678 C 162.270 62.063,162.374 61.085,162.535 60.925 C 162.672 60.788,162.730 60.675,162.664 60.675 C 162.598 60.675,162.436 60.805,162.304 60.965 M26.096 62.723 C 25.767 63.257,25.635 63.944,25.791 64.312 L 25.967 64.727 25.947 64.312 C 25.896 63.291,25.966 63.169,26.597 63.169 C 27.264 63.169,27.435 62.880,26.892 62.672 C 26.443 62.499,26.226 62.513,26.096 62.723 M150.765 65.408 C 150.486 65.687,150.697 65.870,151.296 65.870 C 151.894 65.870,151.936 65.916,151.853 66.483 C 151.804 66.819,151.840 67.048,151.934 66.990 C 152.144 66.860,152.151 66.054,151.945 65.748 C 151.765 65.481,150.932 65.241,150.765 65.408 M15.309 70.721 C 15.216 73.218,15.183 75.304,15.235 75.356 C 15.362 75.484,15.643 68.073,15.551 67.013 C 15.511 66.556,15.403 68.225,15.309 70.721 M162.374 70.753 C 162.374 73.268,162.404 74.268,162.441 72.975 C 162.477 71.683,162.477 69.626,162.441 68.404 C 162.404 67.182,162.374 68.239,162.374 70.753 M151.722 70.182 C 151.687 71.958,151.720 72.021,152.631 71.922 C 152.995 71.882,153.631 75.113,153.359 75.621 C 153.199 75.921,153.196 76.052,153.350 76.052 C 153.802 76.052,153.808 75.351,153.377 73.236 C 153.134 72.042,152.935 70.879,152.935 70.650 C 152.935 70.421,152.803 70.234,152.641 70.234 C 152.479 70.234,152.299 70.117,152.242 69.974 C 152.184 69.831,152.114 69.948,152.086 70.234 C 152.059 70.519,151.973 70.239,151.896 69.610 C 151.761 68.510,151.755 68.531,151.722 70.182 M25.974 68.943 C 25.974 69.033,25.773 69.122,25.527 69.140 C 24.903 69.187,24.727 69.421,24.614 70.356 C 24.510 71.217,24.607 71.134,24.817 70.182 C 24.920 69.714,25.056 69.610,25.562 69.610 C 26.043 69.610,26.182 69.517,26.182 69.195 C 26.182 68.966,26.135 68.779,26.078 68.779 C 26.021 68.779,25.974 68.853,25.974 68.943 M13.922 75.636 C 13.922 75.979,14.031 76.260,14.165 76.260 C 14.298 76.260,14.345 76.321,14.270 76.396 C 14.082 76.584,14.548 77.114,14.777 76.972 C 14.878 76.910,14.961 76.958,14.961 77.079 C 14.961 77.200,15.034 77.299,15.122 77.299 C 15.211 77.299,15.248 76.925,15.204 76.468 C 15.161 76.010,15.041 75.636,14.939 75.636 C 14.837 75.636,14.747 75.473,14.739 75.273 C 14.726 74.962,14.698 74.969,14.545 75.325 C 14.393 75.680,14.365 75.688,14.352 75.377 C 14.327 74.741,13.922 74.986,13.922 75.636 M162.461 76.364 C 162.420 76.878,162.457 77.299,162.544 77.299 C 162.630 77.299,162.701 76.878,162.701 76.364 C 162.701 75.849,162.664 75.429,162.618 75.429 C 162.573 75.429,162.502 75.849,162.461 76.364 M159.740 76.822 C 159.997 76.871,160.418 76.871,160.675 76.822 C 160.932 76.772,160.722 76.732,160.208 76.732 C 159.694 76.732,159.483 76.772,159.740 76.822 M18.649 77.097 C 18.962 77.223,19.117 77.460,19.117 77.811 C 19.117 78.141,19.234 78.338,19.429 78.338 C 19.968 78.338,19.830 77.163,19.273 77.014 C 18.562 76.824,18.117 76.883,18.649 77.097 M158.043 77.157 C 157.637 77.453,157.659 78.146,158.078 78.286 C 158.242 78.340,158.338 78.171,158.338 77.829 C 158.338 77.459,158.487 77.225,158.805 77.097 C 159.248 76.919,159.250 76.909,158.845 76.896 C 158.610 76.889,158.249 77.006,158.043 77.157 M23.169 77.714 C 22.305 77.934,23.155 77.944,24.208 77.726 C 24.907 77.582,24.940 77.554,24.416 77.555 C 24.073 77.555,23.512 77.627,23.169 77.714 M154.066 78.037 C 153.669 78.355,153.669 78.358,154.078 78.169 C 154.306 78.064,154.634 77.926,154.805 77.863 C 155.074 77.763,155.073 77.745,154.793 77.731 C 154.615 77.722,154.288 77.860,154.066 78.037 M15.512 97.294 C 15.439 97.896,15.401 105.870,15.425 115.013 L 15.470 131.636 15.579 113.974 C 15.639 104.260,15.678 96.286,15.666 96.255 C 15.654 96.223,15.584 96.691,15.512 97.294 M126.269 96.502 C 126.207 96.664,126.296 96.851,126.468 96.916 C 126.641 96.983,126.713 97.144,126.630 97.277 C 126.534 97.434,126.572 97.462,126.739 97.359 C 126.926 97.244,126.935 97.137,126.769 96.972 C 126.604 96.807,126.670 96.672,127.011 96.483 L 127.481 96.223 126.931 96.215 C 126.629 96.211,126.331 96.340,126.269 96.502 M162.226 96.344 C 162.071 96.595,162.149 97.092,162.475 97.936 C 162.632 98.341,162.701 103.944,162.701 116.183 L 162.701 133.846 163.273 133.780 L 163.844 133.714 163.899 115.896 L 163.954 98.078 163.337 98.078 C 162.786 98.078,162.706 97.995,162.590 97.299 C 162.400 96.161,162.376 96.101,162.226 96.344 M237.299 96.672 C 237.299 96.942,237.416 97.280,237.558 97.423 C 237.760 97.625,237.842 101.533,237.924 114.971 L 238.031 132.260 238.080 114.869 C 238.108 105.305,238.211 97.429,238.310 97.368 C 238.408 97.307,238.478 97.044,238.465 96.784 C 238.430 96.075,237.299 95.966,237.299 96.672 M274.293 96.398 C 274.297 96.465,274.425 96.744,274.576 97.018 L 274.853 97.516 274.829 96.897 C 274.816 96.553,274.690 96.278,274.545 96.277 C 274.403 96.277,274.289 96.332,274.293 96.398 M384.352 96.935 C 384.420 97.392,384.535 105.527,384.606 115.013 L 384.736 132.260 384.718 115.013 C 384.705 102.797,384.631 97.524,384.463 96.935 L 384.227 96.104 384.352 96.935 M15.221 133.091 C 15.224 133.548,15.266 133.711,15.316 133.452 C 15.365 133.194,15.364 132.820,15.312 132.621 C 15.260 132.422,15.219 132.634,15.221 133.091 M384.794 133.074 C 384.746 133.483,384.771 133.818,384.849 133.818 C 385.067 133.818,385.237 132.698,385.048 132.503 C 384.956 132.408,384.841 132.665,384.794 133.074 M385.373 132.900 C 385.143 133.499,385.242 133.793,385.662 133.761 C 386.175 133.722,386.195 133.499,385.714 133.189 C 385.368 132.967,385.368 132.961,385.714 133.069 C 385.947 133.141,386.078 133.072,386.078 132.877 C 386.078 132.468,385.532 132.486,385.373 132.900 M102.314 161.662 C 102.314 163.091,102.347 163.675,102.388 162.961 C 102.428 162.247,102.428 161.078,102.388 160.364 C 102.347 159.649,102.314 160.234,102.314 161.662 M102.490 164.987 C 102.478 166.230,102.713 166.753,103.282 166.753 C 104.074 166.753,104.124 165.871,103.337 165.781 C 102.852 165.726,102.732 165.592,102.625 164.987 L 102.496 164.260 102.490 164.987 M74.165 168.935 C 74.100 169.320,73.930 169.472,73.506 169.520 C 73.192 169.556,72.935 169.707,72.935 169.855 C 72.935 170.263,73.947 169.997,74.201 169.522 C 74.319 169.302,74.379 168.962,74.334 168.768 C 74.277 168.522,74.226 168.572,74.165 168.935 M103.321 169.143 C 103.321 169.543,103.364 169.706,103.416 169.506 C 103.468 169.306,103.468 168.979,103.416 168.779 C 103.364 168.579,103.321 168.743,103.321 169.143 M103.503 170.618 C 103.463 171.596,103.859 172.374,104.420 172.420 C 104.757 172.448,104.935 172.356,104.935 172.154 C 104.935 171.964,104.738 171.844,104.428 171.844 C 104.001 171.844,103.889 171.705,103.723 170.961 C 103.581 170.328,103.519 170.231,103.503 170.618 M104.622 173.302 C 104.444 173.863,104.892 175.169,105.263 175.169 C 105.436 175.169,105.558 175.375,105.558 175.665 C 105.558 176.472,106.214 177.125,106.818 176.921 C 107.323 176.751,107.322 176.750,106.701 176.628 C 106.108 176.512,106.080 176.460,106.112 175.526 C 106.144 174.582,106.123 174.545,105.562 174.545 C 104.904 174.545,104.722 174.252,104.877 173.441 C 105.001 172.790,104.817 172.689,104.622 173.302 M73.044 173.491 C 72.931 173.846,72.789 173.902,72.246 173.807 C 71.716 173.714,71.636 173.743,71.844 173.952 C 72.479 174.590,72.079 176.000,71.264 176.000 C 70.711 176.000,70.682 176.042,70.790 176.707 C 70.884 177.283,70.823 177.458,70.465 177.650 C 70.224 177.779,70.026 178.007,70.026 178.157 C 70.026 178.307,69.830 178.606,69.591 178.823 C 69.352 179.039,69.056 179.403,68.934 179.632 C 68.663 180.138,69.945 178.883,70.597 178.004 C 70.855 177.657,71.065 177.158,71.065 176.895 C 71.065 176.616,71.190 176.416,71.365 176.416 C 71.794 176.416,72.312 175.592,72.312 174.908 C 72.312 174.576,72.449 174.272,72.629 174.203 C 72.977 174.069,73.445 173.324,73.283 173.161 C 73.227 173.105,73.119 173.254,73.044 173.491 M107.366 177.378 C 107.109 177.636,107.211 178.445,107.516 178.562 C 107.679 178.625,107.843 178.890,107.880 179.151 C 107.917 179.412,108.152 179.727,108.402 179.852 C 108.652 179.976,109.033 180.295,109.250 180.562 C 109.579 180.970,109.707 181.009,110.042 180.804 C 110.411 180.578,110.402 180.564,109.922 180.618 C 109.524 180.662,109.388 180.569,109.338 180.220 C 109.293 179.902,109.106 179.746,108.714 179.701 C 108.184 179.640,108.156 179.579,108.156 178.499 C 108.156 177.402,107.820 176.925,107.366 177.378 M67.825 180.468 C 67.481 180.992,66.443 181.202,66.193 180.798 C 66.129 180.694,65.913 180.640,65.713 180.678 C 65.514 180.716,65.281 180.755,65.195 180.763 C 65.109 180.772,65.039 181.019,65.039 181.313 C 65.039 181.772,65.118 181.837,65.610 181.780 C 65.932 181.743,66.159 181.601,66.130 181.455 C 66.097 181.289,66.325 181.195,66.759 181.195 C 67.256 181.195,67.588 181.026,67.987 180.571 C 68.288 180.229,68.451 179.948,68.350 179.948 C 68.248 179.948,68.012 180.182,67.825 180.468 M111.130 181.247 C 111.224 181.907,111.478 182.231,111.896 182.224 C 112.010 182.223,111.940 182.126,111.740 182.009 C 111.524 181.883,111.377 181.549,111.377 181.184 C 111.377 180.847,111.299 180.571,111.205 180.571 C 111.110 180.571,111.076 180.875,111.130 181.247 M63.377 182.312 C 63.377 182.927,62.931 183.319,62.416 183.157 C 62.058 183.044,62.055 183.053,62.387 183.266 C 62.913 183.604,63.517 183.206,63.628 182.447 C 63.679 182.101,63.643 181.818,63.548 181.818 C 63.454 181.818,63.377 182.040,63.377 182.312 M114.106 182.260 C 114.091 182.561,114.241 182.934,114.442 183.091 C 114.758 183.340,114.774 183.336,114.565 183.065 C 114.433 182.894,114.283 182.519,114.230 182.234 L 114.135 181.714 114.106 182.260 M58.400 183.221 C 58.471 183.918,58.386 184.065,57.788 184.273 C 57.335 184.431,57.040 184.407,56.593 184.177 C 56.038 183.892,56.022 183.895,56.345 184.222 C 57.097 184.984,59.013 184.433,59.013 183.455 C 59.013 183.051,58.908 182.857,58.688 182.857 C 58.503 182.857,58.379 183.014,58.400 183.221 M118.234 183.365 C 118.234 183.933,118.927 184.524,119.579 184.511 C 119.889 184.505,119.823 184.426,119.325 184.210 C 118.816 183.989,118.649 183.785,118.649 183.387 C 118.649 183.095,118.556 182.857,118.442 182.857 C 118.327 182.857,118.234 183.086,118.234 183.365 M45.091 184.519 C 45.091 185.046,45.010 185.143,44.571 185.143 C 44.250 185.143,44.052 185.261,44.052 185.452 C 44.052 185.880,45.017 185.777,45.444 185.305 C 45.628 185.101,45.720 184.935,45.648 184.935 C 45.576 184.935,45.606 184.701,45.714 184.416 C 45.884 183.970,45.853 183.896,45.501 183.896 C 45.184 183.896,45.091 184.037,45.091 184.519 M120.623 184.519 L 120.000 184.678 120.559 184.703 C 120.867 184.716,121.176 184.634,121.247 184.519 C 121.317 184.405,121.346 184.323,121.311 184.336 C 121.276 184.350,120.966 184.432,120.623 184.519 " stroke="none" fill="#ec489c" fill-rule="evenodd"></path></g></svg>